STARTFONT 2.3
FONT -FontForge-Butcherman-Book-R-Normal--20-200-72-72-P-108-ISO10646-1
SIZE 20 72 72  2
FONTBOUNDINGBOX 31 39 -2 -13
COMMENT "Generated by fontforge, http://fontforge.sourceforge.net"
COMMENT "Copyright (c) 2011, Typomondo, with Reserved Font Name  "Butcherman"."
STARTPROPERTIES 41
FOUNDRY "FontForge"
FAMILY_NAME "Butcherman"
WEIGHT_NAME "Book"
SLANT "R"
SETWIDTH_NAME "Normal"
ADD_STYLE_NAME ""
PIXEL_SIZE 20
POINT_SIZE 200
RESOLUTION_X 72
RESOLUTION_Y 72
SPACING "P"
AVERAGE_WIDTH 108
CHARSET_REGISTRY "ISO10646"
CHARSET_ENCODING "1"
FONTNAME_REGISTRY ""
CHARSET_COLLECTIONS "ISO8859-2 ISO8859-9 ISO8859-4 ISO10646-1"
BITS_PER_PIXEL 2
FONT_NAME "Butcherman-Regular"
FACE_NAME "Butcherman Regular"
COPYRIGHT "Copyright (c) 2011, Typomondo, with Reserved Font Name  "Butcherman"."
FONT_VERSION "001.004"
FONT_ASCENT 16
FONT_DESCENT 4
UNDERLINE_POSITION -2
UNDERLINE_THICKNESS 1
X_HEIGHT 14
CAP_HEIGHT 14
DEFAULT_CHAR 3
RAW_ASCENT 799
RAW_DESCENT 200
NORM_SPACE 3
RELATIVE_WEIGHT 40
RELATIVE_SETWIDTH 50
SUPERSCRIPT_X 0
SUPERSCRIPT_Y 6
SUPERSCRIPT_SIZE 11
SUBSCRIPT_X 0
SUBSCRIPT_Y 1
SUBSCRIPT_SIZE 11
AVG_LOWERCASE_WIDTH 116
AVG_UPPERCASE_WIDTH 110
ENDPROPERTIES
CHARS 331
STARTCHAR NULL.dup1
ENCODING 0
SWIDTH 161 0
DWIDTH 3 0
BBX 1 1 0 0
BITMAP
00
ENDCHAR
STARTCHAR CR
ENCODING 13
SWIDTH 161 0
DWIDTH 3 0
BBX 1 1 0 0
BITMAP
00
ENDCHAR
STARTCHAR space
ENCODING 32
SWIDTH 161 0
DWIDTH 3 0
BBX 1 1 0 0
BITMAP
00
ENDCHAR
STARTCHAR exclam
ENCODING 33
SWIDTH 350 0
DWIDTH 7 0
BBX 7 24 0 1
BITMAP
1940
7FF4
7FF0
2FE0
2FE0
2FE0
3FD0
2FD0
1FC0
0FD0
0FC0
0FC0
0FC0
0FC0
0B80
0680
0000
0000
6FF0
3FF0
2FF0
2FF4
2FF0
2FA0
ENDCHAR
STARTCHAR quotedbl
ENCODING 34
SWIDTH 541 0
DWIDTH 11 0
BBX 9 8 1 7
BITMAP
AA2A40
FE3F80
BE2F80
BE1F40
7D1F40
7D0F00
3D0F00
140500
ENDCHAR
STARTCHAR numbersign
ENCODING 35
SWIDTH 583 0
DWIDTH 12 0
BBX 11 18 0 -2
BITMAP
002014
007038
00B074
00E0B0
05E5B4
1FFFFC
1FFFF8
1FFFF8
074380
070380
0B0740
5E5B50
BFFFD0
BFFFC0
191D40
341C00
742800
202400
ENDCHAR
STARTCHAR dollar
ENCODING 36
SWIDTH 534 0
DWIDTH 11 0
BBX 10 26 0 -6
BITMAP
001000
007000
007000
007000
007000
00B900
0BFF80
1FFFE0
2FFFF0
3FFFF0
7FFFE0
7FEFE0
3F8FE0
3FE410
1FFF00
06FF80
001FC0
2F8FC0
1FEF80
0BFF00
01B500
007000
007000
007000
007000
001000
ENDCHAR
STARTCHAR percent
ENCODING 37
SWIDTH 828 0
DWIDTH 17 0
BBX 16 18 0 -2
BITMAP
00000900
05002D00
2FD03C00
7FE07800
7FF07800
7AF07400
75E0B068
39E0E1FD
3ED1D1FE
1F83C1FE
010781FE
000B42EF
000B02DE
000A02FD
000D0064
001C0000
00280000
00140000
ENDCHAR
STARTCHAR ampersand
ENCODING 38
SWIDTH 522 0
DWIDTH 10 0
BBX 10 11 0 2
BITMAP
01A400
01FC00
01F800
16F950
7FFFE0
7FFFE0
3FFFE0
06FD40
01F800
01F800
005400
ENDCHAR
STARTCHAR quotesingle
ENCODING 39
SWIDTH 300 0
DWIDTH 6 0
BBX 4 8 1 7
BITMAP
A9
FF
BF
BE
7E
7D
3D
14
ENDCHAR
STARTCHAR parenleft
ENCODING 40
SWIDTH 372 0
DWIDTH 7 0
BBX 7 20 0 -3
BITMAP
002C
01FC
03FC
0BF8
1FF8
2FF8
3FF4
3F80
3F40
7F40
7F40
7F40
3F40
3F40
2FC0
1FE0
0BF4
07F4
01F4
0010
ENDCHAR
STARTCHAR parenright
ENCODING 41
SWIDTH 338 0
DWIDTH 7 0
BBX 6 20 0 -3
BITMAP
6400
7F00
7FC0
7FE0
3FE0
3FE0
3FE0
1BE0
07E0
03E0
03E0
03E0
03D0
07D0
07C0
0BC0
0B80
7F00
BD00
6400
ENDCHAR
STARTCHAR asterisk
ENCODING 42
SWIDTH 513 0
DWIDTH 10 0
BBX 10 12 0 4
BITMAP
000900
070E00
0B9E00
07FD00
02FC00
7FFFE0
7FFFD0
16FD00
02FD00
03DE00
078E00
014000
ENDCHAR
STARTCHAR plus
ENCODING 43
SWIDTH 458 0
DWIDTH 9 0
BBX 8 9 1 3
BITMAP
0540
0BC0
0BC0
FFFD
FFFD
FFFC
0BC0
0BC0
0640
ENDCHAR
STARTCHAR comma
ENCODING 44
SWIDTH 361 0
DWIDTH 7 0
BBX 6 10 1 -3
BITMAP
BA80
FFC0
FFD0
FFD0
FFC0
FFC0
03C0
03C0
0780
0780
ENDCHAR
STARTCHAR hyphen
ENCODING 45
SWIDTH 478 0
DWIDTH 10 0
BBX 8 5 1 5
BITMAP
6A99
BFFD
FFFC
BFFC
0404
ENDCHAR
STARTCHAR period
ENCODING 46
SWIDTH 374 0
DWIDTH 7 0
BBX 6 6 1 1
BITMAP
AFD0
BFD0
BFD0
BFD0
7FD0
7ED0
ENDCHAR
STARTCHAR slash
ENCODING 47
SWIDTH 291 0
DWIDTH 6 0
BBX 6 18 0 -2
BITMAP
0050
00E0
01D0
02C0
02C0
0380
0740
0B00
0E00
1D00
2D00
2C00
3800
3400
7000
A000
D000
5000
ENDCHAR
STARTCHAR zero
ENCODING 48
SWIDTH 528 0
DWIDTH 11 0
BBX 9 17 1 -2
BITMAP
06A400
2FFD00
BFFF00
FFFF40
FFFF40
FFFF80
FFBF80
FD7F80
FC3F40
BC3F40
BC3F40
BD7F00
7D7E00
7FFD00
2FF800
05E000
004000
ENDCHAR
STARTCHAR one
ENCODING 49
SWIDTH 366 0
DWIDTH 7 0
BBX 7 16 0 -1
BITMAP
01A0
1BF0
FFF0
6FF4
0BF4
0BF4
0BF0
0BF0
07F0
07F0
07E0
07E0
03E0
03E0
02A0
0010
ENDCHAR
STARTCHAR two
ENCODING 50
SWIDTH 575 0
DWIDTH 12 0
BBX 10 17 1 -2
BITMAP
0AA400
2FFD00
BFFF40
FFFF80
FFFFC0
FFFFC0
FFFF80
BE3F80
AD7F40
00BF00
00FE00
01FC00
07FEA0
BFFFF0
FFFFE0
FED2A0
500080
ENDCHAR
STARTCHAR three
ENCODING 51
SWIDTH 517 0
DWIDTH 10 0
BBX 10 16 0 -1
BITMAP
06A400
1FFE00
7FFF80
7FFFC0
3FFFD0
3FFFD0
3FFFD0
3F5FD0
142FC0
00BF80
00BFC0
000BD0
069BC0
07EBC0
03FF40
01EA00
ENDCHAR
STARTCHAR four
ENCODING 52
SWIDTH 466 0
DWIDTH 9 0
BBX 9 20 0 -5
BITMAP
2AAB40
0FFC00
0FF400
1FF000
1FE000
2FD000
2FD000
1FC000
1FD500
2FAF00
2F6E00
2F6E00
3FFF80
3FFF80
7FFF80
106E80
001D00
001C00
001C00
000400
ENDCHAR
STARTCHAR five
ENCODING 53
SWIDTH 583 0
DWIDTH 12 0
BBX 10 16 1 -1
BITMAP
AFEA90
FFFFF0
FFFFF0
BFFFE0
FFFFE0
FFFFD0
BFFFD0
FD5580
BD1400
BFFE00
6BFE00
002F00
1A5F00
1FAE00
0BFD00
07A800
ENDCHAR
STARTCHAR six
ENCODING 54
SWIDTH 582 0
DWIDTH 12 0
BBX 11 17 0 -2
BITMAP
01A900
1FFFD0
3FFFF0
3FFFF8
7FFFFC
3FFFF8
3FFFF8
3F8BF0
2F87F0
1F9560
0FFF90
0FD7F0
0FC3F0
0BE7F0
07FFF0
02FFE0
005440
ENDCHAR
STARTCHAR seven
ENCODING 55
SWIDTH 624 0
DWIDTH 12 0
BBX 13 17 0 -2
BITMAP
56ABFE40
BFFFFF00
7FFFFE00
3FFFFD00
3FFFFD00
3FFFFC00
2FFFF400
1552F400
0003F000
0007E000
000FC000
001F8000
002F0000
003E0000
007D0000
00BC0000
00B80000
ENDCHAR
STARTCHAR eight
ENCODING 56
SWIDTH 459 0
DWIDTH 9 0
BBX 9 16 0 -1
BITMAP
0AA800
3FFF00
7FFF40
7FFF40
3FFF40
3FFF00
2F7F00
2F2E00
1F6E00
0FFC00
0BFC00
0F7D00
0E3C00
0F7C00
0BFC00
02A400
ENDCHAR
STARTCHAR nine
ENCODING 57
SWIDTH 584 0
DWIDTH 12 0
BBX 11 18 0 -3
BITMAP
016A00
07FFD0
1FFFF4
2FFFF4
3FFFF8
3FFFF8
7FEFF8
3FC7F8
2FEBF8
1FFFF8
06EFF0
0147E0
1FCBD0
1FEFC0
0BFF40
026600
001000
001000
ENDCHAR
STARTCHAR colon
ENCODING 58
SWIDTH 386 0
DWIDTH 8 0
BBX 6 16 1 1
BITMAP
AFD0
BFD0
7FD0
BFD0
7FE0
7FD0
1000
0000
0000
0000
BFD0
BFD0
BFD0
BFD0
7FD0
7E90
ENDCHAR
STARTCHAR semicolon
ENCODING 59
SWIDTH 375 0
DWIDTH 8 0
BBX 6 20 1 -3
BITMAP
AFD0
FFD0
BFD0
BFD0
BFD0
BFD0
0000
0000
0000
0000
AA90
BFD0
BFD0
BFD0
FFD0
FFD0
03D0
03C0
07C0
0780
ENDCHAR
STARTCHAR less
ENCODING 60
SWIDTH 459 0
DWIDTH 9 0
BBX 9 12 0 1
BITMAP
015500
03FF40
03FD00
0BF800
2FF000
7FD000
3FD000
2FE000
0BF400
03FD00
01FF40
001640
ENDCHAR
STARTCHAR equal
ENCODING 61
SWIDTH 485 0
DWIDTH 10 0
BBX 8 7 1 5
BITMAP
BFFD
BFFD
1544
0044
BFFD
BFFD
0400
ENDCHAR
STARTCHAR greater
ENCODING 62
SWIDTH 432 0
DWIDTH 9 0
BBX 8 12 0 1
BITMAP
1540
3FE0
1FE0
0BF4
03FD
01FF
01FE
02FD
07F4
2FF0
7FD0
1540
ENDCHAR
STARTCHAR question
ENCODING 63
SWIDTH 577 0
DWIDTH 12 0
BBX 9 18 1 -2
BITMAP
069400
2FFD00
BFFF40
FFFF80
FFFFC0
FFFFC0
BE7FC0
693F80
007F40
00BE00
00FD00
00F800
01A000
000000
06A000
07F400
03F400
03F400
ENDCHAR
STARTCHAR at
ENCODING 64
SWIDTH 930 0
DWIDTH 19 0
BBX 18 22 0 -5
BITMAP
000BFE0000
007FFFD000
01FA56F400
03D1547D00
074FFF2F00
0E2FFF8F80
1D3FFF8BC0
2C3FFF87E0
382FFF47E0
781F9F47F0
781E0F43F0
3805AF43F0
3C1FAF42E0
3C1F0FC2E0
3D1FAFE6D0
2E1FFFBF80
0F46A97900
0BC0000000
03E0000000
00FEAB4000
002FFF4000
0001540000
ENDCHAR
STARTCHAR A
ENCODING 65
SWIDTH 494 0
DWIDTH 10 0
BBX 8 19 1 -4
BITMAP
5554
BFFE
3FFC
3FF8
2FF8
3FF8
3FF4
2FF4
3EF4
3DF4
3DB4
3EF4
3FF4
3FF4
2DF0
2CB0
1460
1010
0040
ENDCHAR
STARTCHAR B
ENCODING 66
SWIDTH 517 0
DWIDTH 10 0
BBX 9 16 1 -1
BITMAP
5AA900
FFFF40
7FFF80
3FFF80
3FFF40
3FFF40
2FAF00
2F5F00
2F6E00
2FFD00
2FFD00
1F6D00
1F2D00
1F6D00
1FFC00
05A400
ENDCHAR
STARTCHAR C
ENCODING 67
SWIDTH 504 0
DWIDTH 10 0
BBX 10 17 0 -2
BITMAP
02A900
0BFF80
3FFFD0
7FFFE0
7FFFE0
7FFFE0
7FEFE0
3F8FD0
3F8A90
2F8000
2F4000
1F4E80
1F9F80
0FFF40
0BFE00
016800
005400
ENDCHAR
STARTCHAR D
ENCODING 68
SWIDTH 522 0
DWIDTH 10 0
BBX 9 18 1 -3
BITMAP
05A800
FFFE00
FFFF80
BFFFC0
7FFFC0
3FFFC0
3FFFC0
3F4F80
2F4B40
2F4B40
2F4F00
1F4F00
1FAF00
1FFE00
1EFD00
08A400
049000
004000
ENDCHAR
STARTCHAR E
ENCODING 69
SWIDTH 570 0
DWIDTH 11 0
BBX 10 16 1 -1
BITMAP
6AA940
FFFFD0
7FFFC0
3FFF80
3FFF40
3FFF00
3FAF00
3F4000
2FA400
2FF800
2FF800
1F4000
1FA400
1FFC00
1AFC00
058400
ENDCHAR
STARTCHAR F
ENCODING 70
SWIDTH 559 0
DWIDTH 11 0
BBX 9 17 1 -2
BITMAP
6A9940
FFFFC0
3FFF80
2FFF40
2FFF40
2FFF40
2FFF00
1F9600
1FE900
1FFE00
0FFE00
0FC000
0FC000
0FC000
1FC000
164000
010000
ENDCHAR
STARTCHAR G
ENCODING 71
SWIDTH 499 0
DWIDTH 10 0
BBX 10 17 0 -2
BITMAP
01A400
1FFF40
3FFFC0
7FFFD0
7FFFE0
7FFFD0
3FBFD0
3F1FC0
2F0FC0
2F1140
2F2FC0
1F6FC0
1F4BC0
0FEFC0
0BFF80
02BE00
011400
ENDCHAR
STARTCHAR H
ENCODING 72
SWIDTH 726 0
DWIDTH 15 0
BBX 14 19 0 -4
BITMAP
0164A940
7FF0BFE0
1FF07FC0
1FF0BF80
0FF0BF40
0BF0BF00
0BF0BF00
07F0BE00
07FAFD00
03FFFC00
03FAFC00
03F1FC00
02F1F800
02F1F800
02F1F400
0251E400
00000000
00010000
00010000
ENDCHAR
STARTCHAR I
ENCODING 73
SWIDTH 401 0
DWIDTH 8 0
BBX 8 16 0 -1
BITMAP
6AA9
7FFC
1FF8
0BF4
0BF4
0BF4
0BF4
0BF0
0BF0
0BF0
07E0
07E0
03E0
03E0
02A0
0150
ENDCHAR
STARTCHAR J
ENCODING 74
SWIDTH 455 0
DWIDTH 9 0
BBX 9 16 -1 -1
BITMAP
00AA40
00BFC0
007F80
003F80
003F00
007F00
007F00
007E00
007E00
007D00
297D00
7D7D00
3DBC00
3FF800
1EF400
014000
ENDCHAR
STARTCHAR K
ENCODING 75
SWIDTH 580 0
DWIDTH 12 0
BBX 11 16 0 -1
BITMAP
6A5290
2FD3F8
1FE7E0
0FEB80
0BEF40
07FF00
07FF00
07FF00
03FF00
03FF40
02FF40
02FF40
02EB80
01D7C0
01E3C0
005140
ENDCHAR
STARTCHAR L
ENCODING 76
SWIDTH 416 0
DWIDTH 8 0
BBX 9 17 0 -2
BITMAP
6AA800
2FF000
2FD000
1FD000
1FD000
1FD000
1FD000
0FD000
0FD000
0FD000
0BD000
0BD000
0BFA80
07FF80
03FF80
015B40
000100
ENDCHAR
STARTCHAR M
ENCODING 77
SWIDTH 740 0
DWIDTH 15 0
BBX 13 16 1 -1
BITMAP
6BD3B940
FFE3FF80
7FF7FF00
3FFBFE00
3FFFFE00
2FFFFD00
2FFFFD00
2FFFFD00
1FFFFD00
1FBEFD00
0FAEBD00
0FAEBC00
0BDDBC00
0BDCF800
0A88A800
05000400
ENDCHAR
STARTCHAR N
ENCODING 78
SWIDTH 610 0
DWIDTH 12 0
BBX 12 18 0 -3
BITMAP
169694
7FE3FD
1FF2F4
1FF6F4
0FFAF0
0FFFF0
0FFFF0
0FFFE0
0BFFE0
0BFFE0
07EFD0
07DFD0
03DFD0
03DBD0
03D7C0
039380
011240
011100
ENDCHAR
STARTCHAR O
ENCODING 79
SWIDTH 504 0
DWIDTH 10 0
BBX 10 17 0 -2
BITMAP
01A400
0FFF40
3FFFD0
7FFFD0
7FFFE0
7FFFD0
7FEFD0
3F5FE0
3F0FD0
2F0FD0
2F4FC0
1F5FC0
1F9F80
0FFF40
0BFF00
019900
001400
ENDCHAR
STARTCHAR P
ENCODING 80
SWIDTH 545 0
DWIDTH 11 0
BBX 10 16 1 -1
BITMAP
6AAA00
BFFF80
3FFFD0
2FFFD0
2FFFC0
2FFFC0
2FDBC0
1FC7C0
0FC780
0FDB80
0FFF40
0BEA00
0BC000
0BC000
07C000
019000
ENDCHAR
STARTCHAR Q
ENCODING 81
SWIDTH 520 0
DWIDTH 10 0
BBX 10 18 0 -3
BITMAP
006800
0BFF40
2FFFD0
3FFFE0
7FFFF0
7FFFF0
7FDBF0
7FCBE0
3FC7E0
2F87E0
2FC7E0
1FDBE0
0BEFD0
07FFC0
01FFE0
006BE0
0001C0
000040
ENDCHAR
STARTCHAR R
ENCODING 82
SWIDTH 599 0
DWIDTH 12 0
BBX 12 16 0 -1
BITMAP
05AA80
7FFFF4
1FFFFD
0BFFFE
07FFFE
07FFFD
07F6FD
07F0FD
03F5FC
02FFF8
02FFF4
01FBF0
01F6F4
01F6F4
01F5F4
0094B4
ENDCHAR
STARTCHAR S
ENCODING 83
SWIDTH 504 0
DWIDTH 10 0
BBX 10 16 0 -1
BITMAP
006900
0BFF80
2FFFE0
3FFFE0
7FFFE0
7FFFD0
7FEFD0
7F8FD0
3FE400
2FFE00
07FF80
006FC0
2F8F80
2FFF40
0FFF00
066500
ENDCHAR
STARTCHAR T
ENCODING 84
SWIDTH 622 0
DWIDTH 12 0
BBX 11 17 1 -2
BITMAP
5AAA40
FFFFF8
BFFFF0
7FFFF0
3FFFF0
3FFFE0
3FFFE0
15FD50
00FC00
00FD00
00FC00
00FC00
00FC00
00BC00
00BC00
00FC00
00A400
ENDCHAR
STARTCHAR U
ENCODING 85
SWIDTH 637 0
DWIDTH 13 0
BBX 12 16 0 -1
BITMAP
5A9154
2FE2FE
1FE2FD
1FE2FC
0FE2F8
0FE2F8
0FE2F4
0BE2F0
0BD3F0
0BD3F0
0BE3F0
07E3E0
07FBE0
03FFD0
01EA40
004100
ENDCHAR
STARTCHAR V
ENCODING 86
SWIDTH 570 0
DWIDTH 11 0
BBX 11 17 0 -2
BITMAP
6A82A8
2F87F8
1FC7F0
0FCBE0
0FCBD0
0FCFC0
0BDFC0
0BDF80
0BEF40
07EF40
07FF00
07FE00
03FE00
02FD00
02FC00
01FC00
005400
ENDCHAR
STARTCHAR W
ENCODING 87
SWIDTH 777 0
DWIDTH 16 0
BBX 16 15 0 0
BITMAP
0153C690
6FD7C7FD
2FE7DBF0
0BEBDFD0
03FBFF80
03FFFF40
02FFFF00
01FFFE00
00BFFE00
007FFD00
007EFC00
003EFC00
002DF800
002DB400
0019B000
ENDCHAR
STARTCHAR X
ENCODING 88
SWIDTH 587 0
DWIDTH 12 0
BBX 12 16 0 -1
BITMAP
169250
6FE7FD
0BEBE0
03FFC0
02FF80
00FF40
00FF00
00FF00
00BE00
00BE00
00BE00
00BE00
00FF00
01EB40
01EB40
029540
ENDCHAR
STARTCHAR Y
ENCODING 89
SWIDTH 688 0
DWIDTH 14 0
BBX 13 16 1 -1
BITMAP
6A819000
BFD2FF40
1FE3FE00
07FBF400
01FFE000
00FFC000
007FC000
007FC000
002F8000
001F8000
001F8000
000F8000
000F8000
000F4000
000F4000
00090000
ENDCHAR
STARTCHAR Z
ENCODING 90
SWIDTH 695 0
DWIDTH 14 0
BBX 13 16 1 -1
BITMAP
5AAA9000
FFFFFF40
BFFFFF00
7FFFFD00
3FFFFC00
2FFFF400
1FBFF000
183F8000
00BE0000
00FD0000
00F80000
02F00000
03FA4000
0BFF4000
0BFF0000
00050000
ENDCHAR
STARTCHAR bracketleft
ENCODING 91
SWIDTH 410 0
DWIDTH 8 0
BBX 7 18 1 -1
BITMAP
BFF4
BFF8
BFF8
BFE4
BD00
BD00
BD00
BD00
BD00
BD00
FD00
FD00
BD00
BD00
BE54
7FF8
7EF4
1040
ENDCHAR
STARTCHAR backslash
ENCODING 92
SWIDTH 292 0
DWIDTH 6 0
BBX 6 18 0 -2
BITMAP
5000
B000
B400
3800
3800
2C00
1D00
1E00
0F00
0B40
0740
0380
0280
01C0
00D0
00A0
00B0
0050
ENDCHAR
STARTCHAR bracketright
ENCODING 93
SWIDTH 407 0
DWIDTH 8 0
BBX 7 19 0 -1
BITMAP
0140
7FF8
7FF8
7FF8
6FF8
01F8
01F8
00F8
00FC
00FC
00FC
00FC
00FC
00FC
00F8
55FC
BFFC
BFFC
0514
ENDCHAR
STARTCHAR asciicircum
ENCODING 94
SWIDTH 523 0
DWIDTH 10 0
BBX 9 8 1 14
BITMAP
001000
0FF400
1FF800
2FFD00
7E7E00
BC2F40
F80F40
600600
ENDCHAR
STARTCHAR underscore
ENCODING 95
SWIDTH 452 0
DWIDTH 9 0
BBX 7 4 1 -1
BITMAP
A958
FFFC
FFFC
5554
ENDCHAR
STARTCHAR grave
ENCODING 96
SWIDTH 444 0
DWIDTH 9 0
BBX 7 5 1 15
BITMAP
1800
2F40
BFD0
1BF4
0064
ENDCHAR
STARTCHAR a
ENCODING 97
SWIDTH 479 0
DWIDTH 10 0
BBX 10 17 0 -2
BITMAP
6AFBD0
2FFF80
0FFF40
0FFF00
0BFF00
0FFF00
0FFF00
0BFF00
0BEF00
0FAF00
0FAF00
0F6F00
0FFF00
0FFF00
0F9E00
0F1E00
0A0100
ENDCHAR
STARTCHAR b
ENCODING 98
SWIDTH 610 0
DWIDTH 12 0
BBX 12 17 0 -2
BITMAP
056AA4
7FFFFC
2FFFFD
0FFFFE
07FFFE
07FFFE
07FAFD
03F4FC
03F4F8
03FFF4
03FFE0
02FAF4
02F5F4
01F5F4
01FFF0
01ABE0
000040
ENDCHAR
STARTCHAR c
ENCODING 99
SWIDTH 534 0
DWIDTH 11 0
BBX 11 16 0 -1
BITMAP
01BE00
0BFFD0
3FFFF0
7FFFF4
7FFFF0
7FFFF4
7FFFF0
3FCBF0
2FC7F0
2FC010
1F8000
1FC640
0FCBC0
0BEF80
07FF40
01A900
ENDCHAR
STARTCHAR d
ENCODING 100
SWIDTH 573 0
DWIDTH 11 0
BBX 11 17 1 -2
BITMAP
56A500
FFFF40
BFFFD0
7FFFF0
3FFFF4
2FFFF4
2FFFF0
1FDBF0
0FC7E0
0FC3D0
0FC3C0
0BC780
0BCB80
0BDB40
07FF00
07BF00
052900
ENDCHAR
STARTCHAR e
ENCODING 101
SWIDTH 632 0
DWIDTH 13 0
BBX 12 16 0 -1
BITMAP
05AA94
7FFFFE
2FFFFC
0FFFF8
0FFFF4
0FFFF4
0BFFF4
0BF060
07F400
03FFC0
03FFC0
03FA80
02F000
02FFD0
01FFD0
015980
ENDCHAR
STARTCHAR f
ENCODING 102
SWIDTH 559 0
DWIDTH 11 0
BBX 10 17 0 -2
BITMAP
5AA650
3FFFF0
0FFFE0
0BFFD0
0BFFD0
0BFFD0
07FFC0
07E180
07FA40
07FF40
03FF40
03F000
03F000
07F000
07F000
059000
004000
ENDCHAR
STARTCHAR g
ENCODING 103
SWIDTH 546 0
DWIDTH 11 0
BBX 11 17 0 -2
BITMAP
06A900
1FFFC0
3FFFF0
7FFFF4
7FFFF8
7FFFF8
3FFFF4
3F8BF0
2F87F0
2F4150
1F9E90
0FCFF0
0FC7E0
0BE7E0
07FFE0
02FFD0
005440
ENDCHAR
STARTCHAR h
ENCODING 104
SWIDTH 730 0
DWIDTH 15 0
BBX 13 16 1 -1
BITMAP
16A2AA40
BFC2FF80
7FC1FF00
3FC2FE00
3FC2FD00
2FC2FD00
2FC2FC00
1FC2F800
1FFFF400
0FFFF400
0FEBF400
0FC7F000
0FD7F000
0BD7E000
0BC7E000
04029000
ENDCHAR
STARTCHAR i
ENCODING 105
SWIDTH 412 0
DWIDTH 8 0
BBX 8 16 0 -1
BITMAP
6AA9
3FFC
1FF8
0BF8
0BF4
0BF4
0BF0
0BF0
07F0
07F0
03E0
03E0
03E0
03E0
0290
0050
ENDCHAR
STARTCHAR j
ENCODING 106
SWIDTH 458 0
DWIDTH 9 0
BBX 10 16 -1 -1
BITMAP
01A940
00FFD0
00BFC0
00BF80
007F40
007F40
007F40
007F40
003F40
003F00
693F00
7E3F00
3F7E00
2FFE00
0BFD00
006400
ENDCHAR
STARTCHAR k
ENCODING 107
SWIDTH 636 0
DWIDTH 13 0
BBX 12 16 0 -1
BITMAP
16A5A9
7FF2FD
1FF3F4
0FF3D0
07F7C0
03FBC0
03FB80
03FF40
03FF00
02FF00
01FF40
01FFC0
00F7D0
00F2E0
00F1F0
005050
ENDCHAR
STARTCHAR l
ENCODING 108
SWIDTH 438 0
DWIDTH 9 0
BBX 9 16 1 -1
BITMAP
6AB800
BFE000
7FD000
3FC000
3FC000
3FC000
2FC000
1FC000
1FC000
1FC000
0F8000
0FC000
0FFA40
0BFF00
0BEE00
091D00
ENDCHAR
STARTCHAR m
ENCODING 109
SWIDTH 770 0
DWIDTH 15 0
BBX 15 17 0 -2
BITMAP
01686E90
6FFCBFF4
2FFCFFD0
1FFDFFC0
0FFEFF80
0FFFFF40
0BFFFF40
0BFFFF40
0BFFFF00
0BFFBF00
07EFBE00
07EB7D00
03EB7C00
03EAB800
03A5A800
02000400
01000000
ENDCHAR
STARTCHAR n
ENCODING 110
SWIDTH 664 0
DWIDTH 13 0
BBX 13 17 0 -2
BITMAP
6AA1AA80
3FF4FF40
2FF8FF00
1FFCFE00
1FFDFD00
1FFEFC00
0FFFFC00
0FFFFC00
0FFFF800
0BFFF800
07EFF400
07DFF400
07DBF000
07DBE000
03C7D000
03879000
00014000
ENDCHAR
STARTCHAR o
ENCODING 111
SWIDTH 545 0
DWIDTH 11 0
BBX 11 17 0 -2
BITMAP
01AA00
0FFFD0
2FFFE0
7FFFF4
7FFFF4
7FFFF4
3FEFF4
3F8FF4
3F4BF4
2F4BF0
2F4BE0
1F8FD0
0FCFC0
0FFFC0
06FF40
005E00
000100
ENDCHAR
STARTCHAR p
ENCODING 112
SWIDTH 557 0
DWIDTH 11 0
BBX 10 16 1 -1
BITMAP
6AA900
FFFFC0
3FFFD0
2FFFE0
2FFFD0
2FFFD0
2FDFD0
2FC7C0
1F87C0
1FDB80
0FFF40
0FEF00
0FC000
0BC000
0BC000
0A8000
ENDCHAR
STARTCHAR q
ENCODING 113
SWIDTH 562 0
DWIDTH 11 0
BBX 11 18 0 -3
BITMAP
01AA40
0BFFD0
3FFFF4
3FFFF8
7FFFF8
7FFFF8
7FD3F8
3FD2F8
3FC2F8
2FC2F8
2FD2F4
1FD7F4
0BFBF0
03FFE0
01FFF8
006AF4
000060
000010
ENDCHAR
STARTCHAR r
ENCODING 114
SWIDTH 616 0
DWIDTH 12 0
BBX 12 17 0 -2
BITMAP
05AA40
7FFFF8
1FFFFF
0BFFFF
07FFFE
07FFFE
07FAFD
03F4FD
03F4FC
03FFFC
02FFF4
02FBE0
02F3E0
02F6E0
02F6E0
0292E0
000010
ENDCHAR
STARTCHAR s
ENCODING 115
SWIDTH 481 0
DWIDTH 10 0
BBX 9 16 0 -1
BITMAP
01A800
0BFF40
2FFFC0
3FFFC0
7FFFC0
7FFFC0
7FBFC0
7F5F80
3F9540
2FFD00
0BFE00
007F00
1A6F00
1FAE00
0FFD00
07A800
ENDCHAR
STARTCHAR t
ENCODING 116
SWIDTH 683 0
DWIDTH 14 0
BBX 13 18 0 -3
BITMAP
06AAA940
7FFFFF80
2FFFFF40
1FFFFE00
0FFFFE00
0BFFFE00
0BFFFE00
066FC500
001FC000
001FC000
001FC000
001FC000
000FC000
000FC000
000FC000
000F8000
000A8000
00004000
ENDCHAR
STARTCHAR u
ENCODING 117
SWIDTH 708 0
DWIDTH 14 0
BBX 13 15 1 0
BITMAP
5A915000
BFD2FF80
7FD2FF40
3FD2FE00
3FE2FD00
2FE2FC00
1FE2FC00
1FD2F800
1FD3F800
0FD3F800
0FE3F400
0BE3F000
07FBF000
03FFE000
01E69000
ENDCHAR
STARTCHAR v
ENCODING 118
SWIDTH 644 0
DWIDTH 13 0
BBX 12 16 1 -1
BITMAP
6A42A5
BF87F8
3F8BF0
2FCBE0
1FCBD0
0FCBD0
0FDBC0
0BDFC0
0BDF80
07EF40
03FF40
02FF00
01FE00
00FE00
00BD00
007800
ENDCHAR
STARTCHAR w
ENCODING 119
SWIDTH 704 0
DWIDTH 14 0
BBX 14 15 0 0
BITMAP
05461500
7FCB1FE0
1FCF5F80
0BDFAF40
07EFFF00
03FFFE00
02FFFD00
01FFFC00
00FFFC00
00BFF800
00BEF800
007DF800
003DF400
002CF400
0018B400
ENDCHAR
STARTCHAR x
ENCODING 120
SWIDTH 599 0
DWIDTH 12 0
BBX 11 16 1 -1
BITMAP
5A4A40
BF8FF8
2F9F80
0FFF00
07FE00
03FD00
03FD00
03FC00
02F800
01F800
02F800
02F800
03FC00
03AD00
07AE00
0A5500
ENDCHAR
STARTCHAR y
ENCODING 121
SWIDTH 604 0
DWIDTH 12 0
BBX 11 16 1 -1
BITMAP
6A0500
BF4FF4
1F9FD0
0BEF80
03FE00
02FD00
02FD00
01FD00
00FD00
00FC00
00BC00
00BC00
00BC00
00BC00
00B800
00A400
ENDCHAR
STARTCHAR z
ENCODING 122
SWIDTH 622 0
DWIDTH 12 0
BBX 11 16 1 -1
BITMAP
6AAA90
FFFFF8
BFFFF4
3FFFE0
2FFFD0
2FFFD0
1FFF80
097F00
00BD00
00F800
01F400
01F000
02E900
03FF00
07FF00
011600
ENDCHAR
STARTCHAR braceleft
ENCODING 123
SWIDTH 372 0
DWIDTH 7 0
BBX 7 20 0 -3
BITMAP
002C
01FC
03FC
0BF8
1FF8
2FF8
3FF4
3F80
3F40
7F40
7F40
7F40
3F40
3F40
2FC0
1FE0
0BF4
07F4
01F4
0010
ENDCHAR
STARTCHAR bar
ENCODING 124
SWIDTH 208 0
DWIDTH 4 0
BBX 2 18 1 -2
BITMAP
60
B0
B0
F0
B0
A0
A0
A0
A0
A0
A0
A0
A0
A0
A0
A0
A0
A0
ENDCHAR
STARTCHAR braceright
ENCODING 125
SWIDTH 338 0
DWIDTH 7 0
BBX 6 20 0 -3
BITMAP
6400
7F00
7FC0
7FE0
3FE0
3FE0
3FE0
1BE0
07E0
03E0
03E0
03E0
03D0
07D0
07C0
0BC0
0B80
7F00
BD00
6400
ENDCHAR
STARTCHAR asciitilde
ENCODING 126
SWIDTH 535 0
DWIDTH 11 0
BBX 9 5 1 11
BITMAP
101400
B8BF00
FFFF80
7FEF40
1A0500
ENDCHAR
STARTCHAR exclamdown
ENCODING 161
SWIDTH 347 0
DWIDTH 7 0
BBX 7 24 0 1
BITMAP
1950
2FF0
2FF4
2FF4
2FF0
3FF0
1590
0000
0040
0B80
0BC0
0BC0
0BC0
0FC0
0FD0
0FC0
1FD0
2FD0
3FE0
2FE0
2FE0
3FF0
7FF4
6FE0
ENDCHAR
STARTCHAR cent
ENCODING 162
SWIDTH 552 0
DWIDTH 11 0
BBX 11 29 0 -8
BITMAP
001000
003000
003000
003000
003000
003000
01BE40
0BFFD0
2FFFF0
7FFFF4
7FFFF4
7FFFF4
3FFFF0
3FC7F0
2FC7F0
2FC000
1FC000
0FC640
0FDBC0
0BEF80
07FF40
01B900
002000
002000
002000
003000
003000
002000
001000
ENDCHAR
STARTCHAR sterling
ENCODING 163
SWIDTH 589 0
DWIDTH 12 0
BBX 10 17 1 -2
BITMAP
06A400
2FFF40
FFFFD0
FFFFE0
FFFFF0
FFFFF0
FFFFE0
BF2FD0
BE1FD0
BF4580
FFD000
2F4000
2FFA80
3FFF40
3FBF00
125E00
000400
ENDCHAR
STARTCHAR yen
ENCODING 165
SWIDTH 692 0
DWIDTH 14 0
BBX 14 16 0 1
BITMAP
BFD0BA90
1FF0FF80
03F6FE00
01FFFC00
00BFF400
007FF000
1ABFFF80
2ABFE640
001FE000
2FFFFFC0
1AAFEA80
000FD000
000FD000
000BD000
0007D000
00010000
ENDCHAR
STARTCHAR brokenbar
ENCODING 166
SWIDTH 201 0
DWIDTH 4 0
BBX 2 18 1 -2
BITMAP
A0
E0
F0
B0
E0
A0
50
00
00
00
00
A0
A0
A0
A0
A0
A0
A0
ENDCHAR
STARTCHAR section
ENCODING 167
SWIDTH 477 0
DWIDTH 10 0
BBX 9 19 0 -4
BITMAP
01B900
07FF80
1FFFC0
1FFF80
1FFF80
1FEF40
0F8E00
0FE400
1FFE00
3FBF00
7F1F00
7F2E00
7FBD00
2FFC00
06FC00
1A7C00
2FB800
1FF400
065000
ENDCHAR
STARTCHAR dieresis
ENCODING 168
SWIDTH 633 0
DWIDTH 13 0
BBX 10 5 1 16
BITMAP
6A0AE0
BF4FF0
BF4FF0
BF4FF0
7F4BA0
ENDCHAR
STARTCHAR copyright
ENCODING 169
SWIDTH 783 0
DWIDTH 16 0
BBX 15 18 0 -2
BITMAP
00054000
007FF800
02D14740
0B4FF090
1D3FF820
287FFD24
347FFD18
707FFD18
707EBC1C
747D681C
343D0018
343D5028
282DB834
1C1FF4A0
0A1BE1D0
03901B80
00BEFD00
00155000
ENDCHAR
STARTCHAR guillemotleft
ENCODING 171
SWIDTH 759 0
DWIDTH 15 0
BBX 15 11 0 1
BITMAP
01FE1FF0
03F83FD0
0BF4BF80
1FE1FF00
3FC2FD00
7F82FC00
2FD0FE00
0BE07F00
03F82FC0
01FD0FE0
006A01A4
ENDCHAR
STARTCHAR uni00AD
ENCODING 173
SWIDTH 446 0
DWIDTH 9 0
BBX 7 4 1 5
BITMAP
5404
FFF8
FFF8
0400
ENDCHAR
STARTCHAR registered
ENCODING 174
SWIDTH 780 0
DWIDTH 16 0
BBX 15 18 0 -2
BITMAP
00014000
007EA800
02D00600
0BEFE080
1DFFFC60
287FFC24
343FFC28
743EBC1C
703D7C2C
302FB82C
302FF418
241FB414
1C0F7C14
0E0B7C20
07811590
01F95B40
006FF900
00014000
ENDCHAR
STARTCHAR macron
ENCODING 175
SWIDTH 446 0
DWIDTH 9 0
BBX 7 4 1 5
BITMAP
5404
FFF8
FFF8
0400
ENDCHAR
STARTCHAR acute
ENCODING 180
SWIDTH 439 0
DWIDTH 9 0
BBX 7 5 1 15
BITMAP
01D0
07D0
2FF4
BF90
5000
ENDCHAR
STARTCHAR mu
ENCODING 181
SWIDTH 679 0
DWIDTH 14 0
BBX 14 15 0 0
BITMAP
56A05000
7FF0FF90
2FF0FFC0
1FF0FF40
1FF0FF00
0FF4FE00
0FF4FD00
0BF0FD00
0BF1FD00
0BF1FC00
07F1FC00
03F2F800
02FBF800
02FFF400
01A2A000
ENDCHAR
STARTCHAR paragraph
ENCODING 182
SWIDTH 591 0
DWIDTH 12 0
BBX 12 16 0 -1
BITMAP
06AAA5
2FFFFD
7FFFF4
7FFDB4
7FFCB0
3FFCB0
3FFCB0
2FFCB0
0FFCB0
066CA0
001C90
001C90
001C90
001C90
001C90
001880
ENDCHAR
STARTCHAR periodcentered
ENCODING 183
SWIDTH 388 0
DWIDTH 8 0
BBX 6 7 1 4
BITMAP
5A90
BFD0
BFD0
BFE0
7FD0
7FD0
1440
ENDCHAR
STARTCHAR cedilla
ENCODING 184
SWIDTH 270 0
DWIDTH 5 0
BBX 4 7 1 -7
BITMAP
74
B0
E5
AE
0D
AD
A9
ENDCHAR
STARTCHAR guillemotright
ENCODING 187
SWIDTH 767 0
DWIDTH 15 0
BBX 15 12 0 1
BITMAP
15400000
3FE1FD00
1FE0BF40
0BF42F80
03FC0FE0
01FE0BF4
01FD07F8
02FD0FF4
0BF42FE0
2FE03FC0
7FD0BF40
1541AA00
ENDCHAR
STARTCHAR Agrave
ENCODING 192
SWIDTH 494 0
DWIDTH 10 0
BBX 10 25 -1 -4
BITMAP
1C0000
2F4000
BFD000
1BF800
005400
000000
055540
0BFFE0
03FFC0
03FF80
02FF80
03FF80
03FF40
02FF40
03EF40
03DF40
03DB40
03EF40
03FF40
03FF40
02DF00
02CB00
014600
010100
000400
ENDCHAR
STARTCHAR Aacute
ENCODING 193
SWIDTH 494 0
DWIDTH 10 0
BBX 11 25 1 -4
BITMAP
0001D0
0007D0
001FF4
00BF90
005000
000000
555400
BFFE00
3FFC00
3FF800
2FF800
3FF800
3FF400
2FF400
3EF400
3DF400
3DB400
3EF400
3FF400
3FF400
2DF000
2CB000
146000
101000
004000
ENDCHAR
STARTCHAR Acircumflex
ENCODING 194
SWIDTH 494 0
DWIDTH 10 0
BBX 10 27 0 -4
BITMAP
02A800
0BFD00
0FFE00
1FBF40
3E1F80
7807D0
600180
000000
155500
2FFF80
0FFF00
0FFE00
0BFE00
0FFE00
0FFD00
0BFD00
0FBD00
0F7D00
0F6D00
0FBD00
0FFD00
0FFD00
0B7C00
0B2C00
051800
040400
001000
ENDCHAR
STARTCHAR Atilde
ENCODING 195
SWIDTH 494 0
DWIDTH 10 0
BBX 10 25 0 -4
BITMAP
140A00
7D7F80
7FFFD0
1FEB80
050100
000000
155500
2FFF80
0FFF00
0FFE00
0BFE00
0FFE00
0FFD00
0BFD00
0FBD00
0F7D00
0F6D00
0FBD00
0FFD00
0FFD00
0B7C00
0B2C00
051800
040400
001000
ENDCHAR
STARTCHAR Adieresis
ENCODING 196
SWIDTH 494 0
DWIDTH 10 0
BBX 10 25 0 -4
BITMAP
6A0AE0
FF1FE0
FF1FE0
FF1FF0
BF1EA0
000000
155500
2FFF80
0FFF00
0FFE00
0BFE00
0FFE00
0FFD00
0BFD00
0FBD00
0F7D00
0F6D00
0FBD00
0FFD00
0FFD00
0B7C00
0B2C00
051800
040400
001000
ENDCHAR
STARTCHAR Aring
ENCODING 197
SWIDTH 494 0
DWIDTH 10 0
BBX 8 26 1 -4
BITMAP
0140
1FF4
2D78
1C28
1EB0
0BD0
0000
5554
BFFE
3FFC
3FF8
2FF8
3FF8
3FF4
2FF4
3EF4
3DF4
3DB4
3EF4
3FF4
3FF4
2DF0
2CB0
1460
1010
0040
ENDCHAR
STARTCHAR AE
ENCODING 198
SWIDTH 733 0
DWIDTH 15 0
BBX 13 19 1 -4
BITMAP
56AAA540
BFFFFF80
3FFFFF40
3FFFFF00
3FFFFE00
3FFFFD00
2FFEBD00
2FFE0000
3EFEA000
3DFFF400
3DBFF000
3EFE0000
3FFE9400
3FFFF400
2DF7F400
2CA25000
14621000
10111000
00400000
ENDCHAR
STARTCHAR Ccedilla
ENCODING 199
SWIDTH 504 0
DWIDTH 10 0
BBX 10 24 0 -9
BITMAP
02A900
0BFF80
3FFFD0
7FFFE0
7FFFE0
7FFFE0
7FEFE0
3F8FD0
3F8A90
2F8000
2F4000
1F4E80
1F9F80
0FFF40
0BFE00
016800
005400
000B00
000E00
001E40
001BD0
0001D0
001BC0
000A80
ENDCHAR
STARTCHAR Egrave
ENCODING 200
SWIDTH 570 0
DWIDTH 11 0
BBX 11 22 0 -1
BITMAP
180000
2F0000
BFD000
1BF400
006400
000000
1AAA50
3FFFF4
1FFFF0
0FFFE0
0FFFD0
0FFFC0
0FEBC0
0FD000
0BE900
0BFE00
0BFE00
07D000
07E900
07FF00
06BF00
016100
ENDCHAR
STARTCHAR Eacute
ENCODING 201
SWIDTH 570 0
DWIDTH 11 0
BBX 12 22 1 -1
BITMAP
000070
0001F4
000BFD
003FE4
002400
000000
6AA940
FFFFD0
7FFFC0
3FFF80
3FFF40
3FFF00
3FAF00
3F4000
2FA400
2FF800
2FF800
1F4000
1FA400
1FFC00
1AFC00
058400
ENDCHAR
STARTCHAR Ecircumflex
ENCODING 202
SWIDTH 570 0
DWIDTH 11 0
BBX 10 24 1 -1
BITMAP
06A400
0BFC00
1FFE00
2F7F00
3D1F80
B807C0
600240
000000
6AA940
FFFFD0
7FFFC0
3FFF80
3FFF40
3FFF00
3FAF00
3F4000
2FA400
2FF800
2FF800
1F4000
1FA400
1FFC00
1AFC00
058400
ENDCHAR
STARTCHAR Edieresis
ENCODING 203
SWIDTH 570 0
DWIDTH 11 0
BBX 10 22 1 -1
BITMAP
A91BD0
FF1FE0
FF1FE0
FF1FE0
FE1E90
000000
6AA940
FFFFD0
7FFFC0
3FFF80
3FFF40
3FFF00
3FAF00
3F4000
2FA400
2FF800
2FF800
1F4000
1FA400
1FFC00
1AFC00
058400
ENDCHAR
STARTCHAR Igrave
ENCODING 204
SWIDTH 401 0
DWIDTH 8 0
BBX 10 22 -2 -1
BITMAP
1C0000
2F4000
BFD000
1BF800
005400
000000
06AA90
07FFC0
01FF80
00BF40
00BF40
00BF40
00BF40
00BF00
00BF00
00BF00
007E00
007E00
003E00
003E00
002A00
001500
ENDCHAR
STARTCHAR Iacute
ENCODING 205
SWIDTH 401 0
DWIDTH 8 0
BBX 11 22 0 -1
BITMAP
0001D0
0007D0
001FF4
00BF90
005000
000000
6AA900
7FFC00
1FF800
0BF400
0BF400
0BF400
0BF400
0BF000
0BF000
0BF000
07E000
07E000
03E000
03E000
02A000
015000
ENDCHAR
STARTCHAR Icircumflex
ENCODING 206
SWIDTH 401 0
DWIDTH 8 0
BBX 10 24 -1 -1
BITMAP
06A800
0BFD00
0FFE00
2FBF40
3E1F80
7807D0
600180
000000
1AAA40
1FFF00
07FE00
02FD00
02FD00
02FD00
02FD00
02FC00
02FC00
02FC00
01F800
01F800
00F800
00F800
00A800
005400
ENDCHAR
STARTCHAR Idieresis
ENCODING 207
SWIDTH 401 0
DWIDTH 8 0
BBX 10 22 -1 -1
BITMAP
6A0AE0
FF1FE0
FF1FE0
FF1FF0
BF1EA0
000000
1AAA40
1FFF00
07FE00
02FD00
02FD00
02FD00
02FD00
02FC00
02FC00
02FC00
01F800
01F800
00F800
00F800
00A800
005400
ENDCHAR
STARTCHAR Eth
ENCODING 208
SWIDTH 530 0
DWIDTH 11 0
BBX 11 18 0 -3
BITMAP
016A80
1FFFE0
1FFFF4
0BFFF8
07FFFC
07FFFC
07FFF8
03F5F8
17F5F4
6FFDF0
02F0F0
02F1E0
01FAE0
01FFD0
01EFC0
014A00
014500
000400
ENDCHAR
STARTCHAR Ntilde
ENCODING 209
SWIDTH 610 0
DWIDTH 12 0
BBX 12 24 0 -3
BITMAP
050280
1F6FE0
1FFFF4
0BFAE0
014040
000000
169694
7FE3FD
1FF2F4
1FF6F4
0FFAF0
0FFFF0
0FFFF0
0FFFE0
0BFFE0
0BFFE0
07EFD0
07DFD0
03DFD0
03DBD0
03D7C0
039380
011240
011100
ENDCHAR
STARTCHAR Ograve
ENCODING 210
SWIDTH 504 0
DWIDTH 10 0
BBX 11 23 -1 -2
BITMAP
1C0000
2F4000
BFD000
1BF800
005400
000000
006900
03FFD0
0FFFF4
1FFFF4
1FFFF8
1FFFF4
1FFBF4
0FD7F8
0FC3F4
0BC3F4
0BD3F0
07D7F0
07E7E0
03FFD0
02FFC0
006640
000500
ENDCHAR
STARTCHAR Oacute
ENCODING 211
SWIDTH 504 0
DWIDTH 10 0
BBX 12 23 0 -2
BITMAP
000074
0001F4
000BFD
002FE4
001400
000000
01A400
0FFF40
3FFFD0
7FFFD0
7FFFE0
7FFFD0
7FEFD0
3F5FE0
3F0FD0
2F0FD0
2F4FC0
1F5FC0
1F9F80
0FFF40
0BFF00
019900
001400
ENDCHAR
STARTCHAR Ocircumflex
ENCODING 212
SWIDTH 504 0
DWIDTH 10 0
BBX 10 25 0 -2
BITMAP
06A800
0BFC00
0FFE00
2F7F40
3E1F80
7807C0
600140
000000
01A400
0FFF40
3FFFD0
7FFFD0
7FFFE0
7FFFD0
7FEFD0
3F5FE0
3F0FD0
2F0FD0
2F4FC0
1F5FC0
1F9F80
0FFF40
0BFF00
019900
001400
ENDCHAR
STARTCHAR Otilde
ENCODING 213
SWIDTH 504 0
DWIDTH 10 0
BBX 10 23 0 -2
BITMAP
101900
BDBF40
BFFFC0
2FEB40
050100
000000
01A400
0FFF40
3FFFD0
7FFFD0
7FFFE0
7FFFD0
7FEFD0
3F5FE0
3F0FD0
2F0FD0
2F4FC0
1F5FC0
1F9F80
0FFF40
0BFF00
019900
001400
ENDCHAR
STARTCHAR Odieresis
ENCODING 214
SWIDTH 504 0
DWIDTH 10 0
BBX 10 23 0 -2
BITMAP
6A0AE0
FF1FE0
FF1FE0
FF1FF0
BF1EA0
000000
01A400
0FFF40
3FFFD0
7FFFD0
7FFFE0
7FFFD0
7FEFD0
3F5FE0
3F0FD0
2F0FD0
2F4FC0
1F5FC0
1F9F80
0FFF40
0BFF00
019900
001400
ENDCHAR
STARTCHAR multiply
ENCODING 215
SWIDTH 359 0
DWIDTH 7 0
BBX 7 7 0 4
BITMAP
1CB0
7EF8
3FF4
1FE0
3FF4
7FFC
2C70
ENDCHAR
STARTCHAR Oslash
ENCODING 216
SWIDTH 658 0
DWIDTH 13 0
BBX 14 17 -1 -2
BITMAP
002A4000
01FFF400
07FFFD60
0BFFFE80
0BFFFE00
0BFFFD00
0BFBFD00
07F1FD00
07E3FD00
03E9FD00
03F5FC00
02F1F800
02F6F800
0AFFF400
24FFE000
50269000
00110000
ENDCHAR
STARTCHAR Ugrave
ENCODING 217
SWIDTH 637 0
DWIDTH 13 0
BBX 12 22 0 -1
BITMAP
0A0000
0F8000
3FE000
16FC00
001800
000000
5A9154
2FE2FE
1FE2FD
1FE2FC
0FE2F8
0FE2F8
0FE2F4
0BE2F0
0BD3F0
0BD3F0
0BE3F0
07E3E0
07FBE0
03FFD0
01EA40
004100
ENDCHAR
STARTCHAR Uacute
ENCODING 218
SWIDTH 637 0
DWIDTH 13 0
BBX 13 22 0 -1
BITMAP
00000A00
00002F00
0000BFC0
0003F900
00024000
00000000
5A915400
2FE2FE00
1FE2FD00
1FE2FC00
0FE2F800
0FE2F800
0FE2F400
0BE2F000
0BD3F000
0BD3F000
0BE3F000
07E3E000
07FBE000
03FFD000
01EA4000
00410000
ENDCHAR
STARTCHAR Ucircumflex
ENCODING 219
SWIDTH 637 0
DWIDTH 13 0
BBX 12 24 0 -1
BITMAP
00AB40
00FF80
02FFD0
03FBE0
07D2F4
0F40B8
090020
000000
5A9154
2FE2FE
1FE2FD
1FE2FC
0FE2F8
0FE2F8
0FE2F4
0BE2F0
0BD3F0
0BD3F0
0BE3F0
07E3E0
07FBE0
03FFD0
01EA40
004100
ENDCHAR
STARTCHAR Udieresis
ENCODING 220
SWIDTH 637 0
DWIDTH 13 0
BBX 12 22 0 -1
BITMAP
0A91B9
1FE2FD
1FE2FD
1FE2FD
1FD2E9
000000
5A9154
2FE2FE
1FE2FD
1FE2FC
0FE2F8
0FE2F8
0FE2F4
0BE2F0
0BD3F0
0BD3F0
0BE3F0
07E3E0
07FBE0
03FFD0
01EA40
004100
ENDCHAR
STARTCHAR Yacute
ENCODING 221
SWIDTH 688 0
DWIDTH 14 0
BBX 13 22 1 -1
BITMAP
00000D00
00007E00
0001FF80
000BF900
00064000
00000000
6A819000
BFD2FF40
1FE3FE00
07FBF400
01FFE000
00FFC000
007FC000
007FC000
002F8000
001F8000
001F8000
000F8000
000F8000
000F4000
000F4000
00090000
ENDCHAR
STARTCHAR Thorn
ENCODING 222
SWIDTH 521 0
DWIDTH 10 0
BBX 10 22 0 -3
BITMAP
001000
BFE000
BFD000
7FD000
7FEA40
3FFFD0
3FFFE0
3FFFE0
3FFFE0
2FFFE0
2FEBE0
1FD3D0
1FD3D0
0FE7C0
0FFF80
0BFB40
0BD000
0BD000
0BD000
069000
014000
010000
ENDCHAR
STARTCHAR germandbls
ENCODING 223
SWIDTH 546 0
DWIDTH 11 0
BBX 11 17 0 -2
BITMAP
056940
1FFFE0
3FFFF4
3FFFF4
3FFFF4
7FFFF4
7FEFF0
3F8BE0
3F8BD0
2FAFC0
2FAF40
1F9FC0
1F8BC0
1F8B80
0FAF80
0EAF00
000500
ENDCHAR
STARTCHAR agrave
ENCODING 224
SWIDTH 479 0
DWIDTH 10 0
BBX 11 23 -1 -2
BITMAP
0D0000
1F4000
7FE000
1BF800
001400
000000
1ABEF4
0BFFE0
03FFD0
03FFC0
02FFC0
03FFC0
03FFC0
02FFC0
02FBC0
03EBC0
03EBC0
03DBC0
03FFC0
03FFC0
03E780
03C780
028040
ENDCHAR
STARTCHAR aacute
ENCODING 225
SWIDTH 479 0
DWIDTH 10 0
BBX 12 23 0 -2
BITMAP
000024
0001F8
0007FE
001FE4
001900
000000
6AFBD0
2FFF80
0FFF40
0FFF00
0BFF00
0FFF00
0FFF00
0BFF00
0BEF00
0FAF00
0FAF00
0F6F00
0FFF00
0FFF00
0F9E00
0F1E00
0A0100
ENDCHAR
STARTCHAR acircumflex
ENCODING 226
SWIDTH 479 0
DWIDTH 10 0
BBX 10 25 0 -2
BITMAP
02A800
07FD00
0FFF00
1FAF40
2E0FC0
7C03D0
200180
000000
6AFBD0
2FFF80
0FFF40
0FFF00
0BFF00
0FFF00
0FFF00
0BFF00
0BEF00
0FAF00
0FAF00
0F6F00
0FFF00
0FFF00
0F9E00
0F1E00
0A0100
ENDCHAR
STARTCHAR atilde
ENCODING 227
SWIDTH 479 0
DWIDTH 10 0
BBX 10 23 0 -2
BITMAP
141A00
7DBF80
7FFFD0
2FEB80
050100
000000
6AFBD0
2FFF80
0FFF40
0FFF00
0BFF00
0FFF00
0FFF00
0BFF00
0BEF00
0FAF00
0FAF00
0F6F00
0FFF00
0FFF00
0F9E00
0F1E00
0A0100
ENDCHAR
STARTCHAR adieresis
ENCODING 228
SWIDTH 479 0
DWIDTH 10 0
BBX 10 23 0 -2
BITMAP
6A0AE0
BF4FF0
BF4FF0
BF4FF0
BF4BA0
000000
6AFBD0
2FFF80
0FFF40
0FFF00
0BFF00
0FFF00
0FFF00
0BFF00
0BEF00
0FAF00
0FAF00
0F6F00
0FFF00
0FFF00
0F9E00
0F1E00
0A0100
ENDCHAR
STARTCHAR aring
ENCODING 229
SWIDTH 479 0
DWIDTH 10 0
BBX 10 25 0 -2
BITMAP
005400
03FD00
075F00
070A00
039D00
02F800
001000
000000
6AFBD0
2FFF80
0FFF40
0FFF00
0BFF00
0FFF00
0FFF00
0BFF00
0BEF00
0FAF00
0FAF00
0F6F00
0FFF00
0FFF00
0F9E00
0F1E00
0A0100
ENDCHAR
STARTCHAR ae
ENCODING 230
SWIDTH 755 0
DWIDTH 15 0
BBX 15 17 0 -2
BITMAP
6AFBEA50
2FFFFFF4
0FFFFFE0
0BFFFFC0
0BFFFFC0
0BFFFF80
0BFFFF80
0BFFC140
0BEFC000
0BAFFE00
0F9FFD00
0F9FE900
0FFFC000
0FFFFE00
0F9FFE00
0F5E6500
0A010000
ENDCHAR
STARTCHAR ccedilla
ENCODING 231
SWIDTH 534 0
DWIDTH 11 0
BBX 11 23 0 -8
BITMAP
01BE00
0BFFD0
3FFFF0
7FFFF4
7FFFF0
7FFFF4
7FFFF0
3FCBF0
2FC7F0
2FC010
1F8000
1FC640
0FCBC0
0BEF80
07FF40
01A900
001D00
001C00
002940
002B80
000380
002B80
001A40
ENDCHAR
STARTCHAR egrave
ENCODING 232
SWIDTH 632 0
DWIDTH 13 0
BBX 12 22 0 -1
BITMAP
0D0000
1F8000
7FE000
1BFC00
001800
000000
05AA94
7FFFFE
2FFFFC
0FFFF8
0FFFF4
0FFFF4
0BFFF4
0BF060
07F400
03FFC0
03FFC0
03FA80
02F000
02FFD0
01FFD0
015980
ENDCHAR
STARTCHAR eacute
ENCODING 233
SWIDTH 632 0
DWIDTH 13 0
BBX 13 22 0 -1
BITMAP
00000900
00003E00
0001FF80
0007F900
00064000
00000000
05AA9400
7FFFFE00
2FFFFC00
0FFFF800
0FFFF400
0FFFF400
0BFFF400
0BF06000
07F40000
03FFC000
03FFC000
03FA8000
02F00000
02FFD000
01FFD000
01598000
ENDCHAR
STARTCHAR ecircumflex
ENCODING 234
SWIDTH 632 0
DWIDTH 13 0
BBX 12 24 0 -1
BITMAP
00AB00
01FF40
02FFC0
07EBE0
0B82F0
0F00F4
090060
000000
05AA94
7FFFFE
2FFFFC
0FFFF8
0FFFF4
0FFFF4
0BFFF4
0BF060
07F400
03FFC0
03FFC0
03FA80
02F000
02FFD0
01FFD0
015980
ENDCHAR
STARTCHAR edieresis
ENCODING 235
SWIDTH 632 0
DWIDTH 13 0
BBX 12 22 0 -1
BITMAP
1A82B8
2FD3FC
2FD3FC
2FD3FD
1FD2E8
000000
05AA94
7FFFFE
2FFFFC
0FFFF8
0FFFF4
0FFFF4
0BFFF4
0BF060
07F400
03FFC0
03FFC0
03FA80
02F000
02FFD0
01FFD0
015980
ENDCHAR
STARTCHAR igrave
ENCODING 236
SWIDTH 411 0
DWIDTH 8 0
BBX 10 22 -2 -1
BITMAP
1D0000
1F4000
7FE000
1BF800
001400
000000
06AA90
03FFD0
00FF80
00BF80
00BF40
00BF40
00BF00
00BF00
007F00
007F00
003E00
003E00
003E00
003E00
002D00
000500
ENDCHAR
STARTCHAR iacute
ENCODING 237
SWIDTH 411 0
DWIDTH 8 0
BBX 11 22 0 -1
BITMAP
0000D0
0007E0
001FF8
00BF90
006400
000000
6AA900
3FFD00
0FF800
0BF800
0BF400
0BF400
0BF000
0BF000
07F000
07F000
03E000
03E000
03E000
03E000
02D000
005000
ENDCHAR
STARTCHAR icircumflex
ENCODING 238
SWIDTH 411 0
DWIDTH 8 0
BBX 9 24 0 -1
BITMAP
06B400
0FF800
1FFD00
3F7F00
7D2F40
B40B80
500240
000000
6AA900
3FFD00
0FF800
0BF800
0BF400
0BF400
0BF000
0BF000
07F000
07F000
03E000
03E000
03E000
03E000
02D000
005000
ENDCHAR
STARTCHAR idieresis
ENCODING 239
SWIDTH 411 0
DWIDTH 8 0
BBX 10 22 -1 -1
BITMAP
6A0AE0
BF0FF0
BF0FF0
BF0FF0
BF0FA0
000000
1AAA40
0FFF40
03FE00
02FE00
02FD00
02FD00
02FC00
02FC00
01FC00
01FC00
00F800
00F800
00F800
00F800
00B400
001400
ENDCHAR
STARTCHAR eth
ENCODING 240
SWIDTH 530 0
DWIDTH 11 0
BBX 11 18 0 -3
BITMAP
016A80
1FFFE0
1FFFF4
0BFFF8
07FFFC
07FFFC
07FFF8
03F5F8
17F5F4
6FFDF0
02F0F0
02F1E0
01FAE0
01FFD0
01EFC0
014A00
014500
000400
ENDCHAR
STARTCHAR ntilde
ENCODING 241
SWIDTH 664 0
DWIDTH 13 0
BBX 13 23 0 -2
BITMAP
01019000
0BDBF400
0BFFFC00
03FEF400
00500000
00000000
6AA1AA80
3FF4FF40
2FF8FF00
1FFCFE00
1FFDFD00
1FFEFC00
0FFFFC00
0FFFFC00
0FFFF800
0BFFF800
07EFF400
07DFF400
07DBF000
07DBE000
03C7D000
03879000
00014000
ENDCHAR
STARTCHAR ograve
ENCODING 242
SWIDTH 545 0
DWIDTH 11 0
BBX 12 23 -1 -2
BITMAP
0D0000
1F8000
7FE000
1AFC00
001800
000000
006A80
03FFF4
0BFFF8
1FFFFD
1FFFFD
1FFFFD
0FFBFD
0FE3FD
0FD2FD
0BD2FC
0BD2F8
07E3F4
03F3F0
03FFF0
01BFD0
001780
000040
ENDCHAR
STARTCHAR oacute
ENCODING 243
SWIDTH 545 0
DWIDTH 11 0
BBX 12 23 0 -2
BITMAP
000028
0000BC
0007FE
001FE4
000900
000000
01AA00
0FFFD0
2FFFE0
7FFFF4
7FFFF4
7FFFF4
3FEFF4
3F8FF4
3F4BF4
2F4BF0
2F4BE0
1F8FD0
0FCFC0
0FFFC0
06FF40
005E00
000100
ENDCHAR
STARTCHAR ocircumflex
ENCODING 244
SWIDTH 545 0
DWIDTH 11 0
BBX 11 25 0 -2
BITMAP
02AC00
07FE00
0BFF00
0FAF80
2F0BC0
3D03E0
240080
000000
01AA00
0FFFD0
2FFFE0
7FFFF4
7FFFF4
7FFFF4
3FEFF4
3F8FF4
3F4BF4
2F4BF0
2F4BE0
1F8FD0
0FCFC0
0FFFC0
06FF40
005E00
000100
ENDCHAR
STARTCHAR otilde
ENCODING 245
SWIDTH 545 0
DWIDTH 11 0
BBX 11 23 0 -2
BITMAP
140A00
7E7F80
7FFFD0
1FEB80
054100
000000
01AA00
0FFFD0
2FFFE0
7FFFF4
7FFFF4
7FFFF4
3FEFF4
3F8FF4
3F4BF4
2F4BF0
2F4BE0
1F8FD0
0FCFC0
0FFFC0
06FF40
005E00
000100
ENDCHAR
STARTCHAR odieresis
ENCODING 246
SWIDTH 545 0
DWIDTH 11 0
BBX 11 23 0 -2
BITMAP
6A4AE0
7F4BF4
7F4BF4
7F4BF4
7F4BA4
000000
01AA00
0FFFD0
2FFFE0
7FFFF4
7FFFF4
7FFFF4
3FEFF4
3F8FF4
3F4BF4
2F4BF0
2F4BE0
1F8FD0
0FCFC0
0FFFC0
06FF40
005E00
000100
ENDCHAR
STARTCHAR oslash
ENCODING 248
SWIDTH 676 0
DWIDTH 14 0
BBX 13 17 0 -2
BITMAP
01AA0000
0BFFD180
2FFFE600
3FFFF800
3FFFF400
3FFFF400
2FEFF400
2F8FF400
2FAFF000
1FD7F000
1F8BE000
0F8BD000
1FCFC000
6BFFC000
86FF4000
005E0000
00010000
ENDCHAR
STARTCHAR ugrave
ENCODING 249
SWIDTH 708 0
DWIDTH 14 0
BBX 13 21 1 0
BITMAP
0D000000
1F400000
7FE00000
1BF80000
00140000
00000000
5A915000
BFD2FF80
7FD2FF40
3FD2FE00
3FE2FD00
2FE2FC00
1FE2FC00
1FD2F800
1FD3F800
0FD3F800
0FE3F400
0BE3F000
07FBF000
03FFE000
01E69000
ENDCHAR
STARTCHAR uacute
ENCODING 250
SWIDTH 708 0
DWIDTH 14 0
BBX 13 21 1 0
BITMAP
00000900
00007E00
0001FF80
0007F900
00064000
00000000
5A915000
BFD2FF80
7FD2FF40
3FD2FE00
3FE2FD00
2FE2FC00
1FE2FC00
1FD2F800
1FD3F800
0FD3F800
0FE3F400
0BE3F000
07FBF000
03FFE000
01E69000
ENDCHAR
STARTCHAR ucircumflex
ENCODING 251
SWIDTH 708 0
DWIDTH 14 0
BBX 13 23 1 0
BITMAP
00AA0000
01FF4000
02FFC000
07EBD000
0B83F000
0F00F400
08006000
00000000
5A915000
BFD2FF80
7FD2FF40
3FD2FE00
3FE2FD00
2FE2FC00
1FE2FC00
1FD2F800
1FD3F800
0FD3F800
0FE3F400
0BE3F000
07FBF000
03FFE000
01E69000
ENDCHAR
STARTCHAR udieresis
ENCODING 252
SWIDTH 708 0
DWIDTH 14 0
BBX 13 21 1 0
BITMAP
1A82B800
2FD3FC00
2FD3FC00
2FD3FC00
1FD2E800
00000000
5A915000
BFD2FF80
7FD2FF40
3FD2FE00
3FE2FD00
2FE2FC00
1FE2FC00
1FD2F800
1FD3F800
0FD3F800
0FE3F400
0BE3F000
07FBF000
03FFE000
01E69000
ENDCHAR
STARTCHAR yacute
ENCODING 253
SWIDTH 604 0
DWIDTH 12 0
BBX 12 22 1 -1
BITMAP
000034
0001F8
0007FE
002FE4
001900
000000
6A0500
BF4FF4
1F9FD0
0BEF80
03FE00
02FD00
02FD00
01FD00
00FD00
00FC00
00BC00
00BC00
00BC00
00BC00
00B800
00A400
ENDCHAR
STARTCHAR thorn
ENCODING 254
SWIDTH 498 0
DWIDTH 10 0
BBX 10 21 0 -3
BITMAP
BFD000
BFD000
7FC000
7FEA00
3FFFC0
3FFFD0
3FFFD0
3FFFD0
2FFFD0
2FDBD0
1FC7C0
1FC7C0
0FDB80
0FFF80
0BFA00
0BD000
0BD000
0BD000
069000
014000
010000
ENDCHAR
STARTCHAR ydieresis
ENCODING 255
SWIDTH 604 0
DWIDTH 12 0
BBX 11 22 1 -1
BITMAP
2A46F4
3F8BF8
3F8BF8
3F8BF8
3F87A4
000000
6A0500
BF4FF4
1F9FD0
0BEF80
03FE00
02FD00
02FD00
01FD00
00FD00
00FC00
00BC00
00BC00
00BC00
00BC00
00B800
00A400
ENDCHAR
STARTCHAR Amacron
ENCODING 256
SWIDTH 494 0
DWIDTH 10 0
BBX 8 23 1 -4
BITMAP
1404
BFFD
BFFC
0404
5554
BFFE
3FFC
3FF8
2FF8
3FF8
3FF4
2FF4
3EF4
3DF4
3DB4
3EF4
3FF4
3FF4
2DF0
2CB0
1460
1010
0040
ENDCHAR
STARTCHAR amacron
ENCODING 257
SWIDTH 479 0
DWIDTH 10 0
BBX 10 22 0 -2
BITMAP
050100
1FFF40
1FFF40
014000
000000
6AFBD0
2FFF80
0FFF40
0FFF00
0BFF00
0FFF00
0FFF00
0BFF00
0BEF00
0FAF00
0FAF00
0F6F00
0FFF00
0FFF00
0F9E00
0F1E00
0A0100
ENDCHAR
STARTCHAR Abreve
ENCODING 258
SWIDTH 494 0
DWIDTH 10 0
BBX 9 27 1 -4
BITMAP
140000
3D0A40
2E0F40
1FFF00
0BFE00
012900
000000
000000
555400
BFFE00
3FFC00
3FF800
2FF800
3FF800
3FF400
2FF400
3EF400
3DF400
3DB400
3EF400
3FF400
3FF400
2DF000
2CB000
146000
101000
004000
ENDCHAR
STARTCHAR abreve
ENCODING 259
SWIDTH 479 0
DWIDTH 10 0
BBX 10 25 0 -2
BITMAP
050000
0F4290
0B83D0
07FFC0
02FF80
004A40
000000
000000
6AFBD0
2FFF80
0FFF40
0FFF00
0BFF00
0FFF00
0FFF00
0BFF00
0BEF00
0FAF00
0FAF00
0F6F00
0FFF00
0FFF00
0F9E00
0F1E00
0A0100
ENDCHAR
STARTCHAR Aogonek
ENCODING 260
SWIDTH 494 0
DWIDTH 10 0
BBX 9 24 1 -9
BITMAP
555400
BFFE00
3FFC00
3FF800
2FF800
3FF800
3FF400
2FF400
3EF400
3DF400
3DB400
3EF400
3FF400
3FF400
2DF000
2CF000
15E000
12E000
02D000
02E000
02F400
01FF40
00BF40
000500
ENDCHAR
STARTCHAR aogonek
ENCODING 261
SWIDTH 479 0
DWIDTH 10 0
BBX 11 22 0 -7
BITMAP
6AFBD0
2FFF80
0FFF40
0FFF00
0BFF00
0FFF00
0FFF00
0BFF00
0BEF00
0FAF00
0FAF00
0F6F00
0FFF00
0FFE00
0F9E00
0F1E00
0A1E00
002D00
002D00
002F50
001FF4
0007F4
ENDCHAR
STARTCHAR Cacute
ENCODING 262
SWIDTH 504 0
DWIDTH 10 0
BBX 11 23 0 -2
BITMAP
0000D0
0007E0
001FF8
00BF90
006400
000000
02A900
0BFF80
3FFFD0
7FFFE0
7FFFE0
7FFFE0
7FEFE0
3F8FD0
3F8A90
2F8000
2F4000
1F4E80
1F9F80
0FFF40
0BFE00
016800
005400
ENDCHAR
STARTCHAR cacute
ENCODING 263
SWIDTH 534 0
DWIDTH 11 0
BBX 11 22 0 -1
BITMAP
0000A0
0002F0
000FF8
007F90
002400
000000
01BE00
0BFFD0
3FFFF0
7FFFF4
7FFFF0
7FFFF4
7FFFF0
3FCBF0
2FC7F0
2FC010
1F8000
1FC640
0FCBC0
0BEF80
07FF40
01A900
ENDCHAR
STARTCHAR Ccircumflex
ENCODING 264
SWIDTH 504 0
DWIDTH 10 0
BBX 10 25 0 -2
BITMAP
02AD00
03FE00
07FF40
0FDF80
1F4BD0
2D02E0
240090
000000
02A900
0BFF80
3FFFD0
7FFFE0
7FFFE0
7FFFE0
7FEFE0
3F8FD0
3F8A90
2F8000
2F4000
1F4E80
1F9F80
0FFF40
0BFE00
016800
005400
ENDCHAR
STARTCHAR ccircumflex
ENCODING 265
SWIDTH 534 0
DWIDTH 11 0
BBX 11 24 0 -1
BITMAP
00AA00
01FF40
03FFC0
07EBD0
0B83F0
1E01F4
080060
000000
01BE00
0BFFD0
3FFFF0
7FFFF4
7FFFF0
7FFFF4
7FFFF0
3FCBF0
2FC7F0
2FC010
1F8000
1FC640
0FCBC0
0BEF80
07FF40
01A900
ENDCHAR
STARTCHAR Cdotaccent
ENCODING 266
SWIDTH 504 0
DWIDTH 10 0
BBX 10 25 0 -2
BITMAP
056900
07FF00
03FF00
03FF00
03FF00
03FF00
014000
000000
02A900
0BFF80
3FFFD0
7FFFE0
7FFFE0
7FFFE0
7FEFE0
3F8FD0
3F8A90
2F8000
2F4000
1F4E80
1F9F80
0FFF40
0BFE00
016800
005400
ENDCHAR
STARTCHAR cdotaccent
ENCODING 267
SWIDTH 534 0
DWIDTH 11 0
BBX 11 24 0 -1
BITMAP
016A00
03FF40
02FF40
02FF40
02FF40
02FF40
015100
000000
01BE00
0BFFD0
3FFFF0
7FFFF4
7FFFF0
7FFFF4
7FFFF0
3FCBF0
2FC7F0
2FC010
1F8000
1FC640
0FCBC0
0BEF80
07FF40
01A900
ENDCHAR
STARTCHAR Ccaron
ENCODING 268
SWIDTH 504 0
DWIDTH 10 0
BBX 10 25 0 -2
BITMAP
2C0280
3E07E0
2F4FC0
0FEF80
0BFF00
07FE00
02A800
000000
02A900
0BFF80
3FFFD0
7FFFE0
7FFFE0
7FFFE0
7FEFE0
3F8FD0
3F8A90
2F8000
2F4000
1F4E80
1F9F80
0FFF40
0BFE00
016800
005400
ENDCHAR
STARTCHAR ccaron
ENCODING 269
SWIDTH 534 0
DWIDTH 11 0
BBX 11 24 0 -1
BITMAP
1E00E0
1F42F4
0FC7E0
07EFD0
03FF80
02FF40
00AA00
000000
01BE00
0BFFD0
3FFFF0
7FFFF4
7FFFF0
7FFFF4
7FFFF0
3FCBF0
2FC7F0
2FC010
1F8000
1FC640
0FCBC0
0BEF80
07FF40
01A900
ENDCHAR
STARTCHAR Dcaron
ENCODING 270
SWIDTH 522 0
DWIDTH 10 0
BBX 10 26 1 -3
BITMAP
2C0280
3E07D0
2F4FC0
1FAF40
0BFF00
07FD00
02A800
000000
05A800
FFFE00
FFFF80
BFFFC0
7FFFC0
3FFFC0
3FFFC0
3F4F80
2F4B40
2F4B40
2F4F00
1F4F00
1FAF00
1FFE00
1EFD00
08A400
049000
004000
ENDCHAR
STARTCHAR dcaron
ENCODING 271
SWIDTH 522 0
DWIDTH 10 0
BBX 10 26 1 -3
BITMAP
2C0280
3E07D0
2F4FC0
1FAF40
0BFF00
07FD00
02A800
000000
05A800
FFFE00
FFFF80
BFFFC0
7FFFC0
3FFFC0
3FFFC0
3F4F80
2F4B40
2F4B40
2F4F00
1F4F00
1FAF00
1FFE00
1EFD00
08A400
049000
004000
ENDCHAR
STARTCHAR Eth.dup2
ENCODING 272
SWIDTH 530 0
DWIDTH 11 0
BBX 11 18 0 -3
BITMAP
016A80
1FFFE0
1FFFF4
0BFFF8
07FFFC
07FFFC
07FFF8
03F5F8
17F5F4
6FFDF0
02F0F0
02F1E0
01FAE0
01FFD0
01EFC0
014A00
014500
000400
ENDCHAR
STARTCHAR Emacron
ENCODING 274
SWIDTH 570 0
DWIDTH 11 0
BBX 10 20 1 -1
BITMAP
050100
2FFF00
2FFF00
010100
6AA940
FFFFD0
7FFFC0
3FFF80
3FFF40
3FFF00
3FAF00
3F4000
2FA400
2FF800
2FF800
1F4000
1FA400
1FFC00
1AFC00
058400
ENDCHAR
STARTCHAR emacron
ENCODING 275
SWIDTH 632 0
DWIDTH 13 0
BBX 12 20 0 -1
BITMAP
014000
07FFE0
07FFD0
005000
05AA94
7FFFFE
2FFFFC
0FFFF8
0FFFF4
0FFFF4
0BFFF4
0BF060
07F400
03FFC0
03FFC0
03FA80
02F000
02FFD0
01FFD0
015980
ENDCHAR
STARTCHAR Ebreve
ENCODING 276
SWIDTH 570 0
DWIDTH 11 0
BBX 10 24 1 -1
BITMAP
050000
0F4290
0F47C0
0BFFC0
06FF40
004E00
000100
000000
6AA940
FFFFD0
7FFFC0
3FFF80
3FFF40
3FFF00
3FAF00
3F4000
2FA400
2FF800
2FF800
1F4000
1FA400
1FFC00
1AFC00
058400
ENDCHAR
STARTCHAR ebreve
ENCODING 277
SWIDTH 632 0
DWIDTH 13 0
BBX 12 24 0 -1
BITMAP
005000
00F429
00F47C
00BFFC
006FF4
0004E0
000010
000000
05AA94
7FFFFE
2FFFFC
0FFFF8
0FFFF4
0FFFF4
0BFFF4
0BF060
07F400
03FFC0
03FFC0
03FA80
02F000
02FFD0
01FFD0
015980
ENDCHAR
STARTCHAR Edotaccent
ENCODING 278
SWIDTH 570 0
DWIDTH 11 0
BBX 10 24 1 -1
BITMAP
05A800
0FFD00
0FFC00
0BFD00
0BFD00
0BFC00
054400
000000
6AA940
FFFFD0
7FFFC0
3FFF80
3FFF40
3FFF00
3FAF00
3F4000
2FA400
2FF800
2FF800
1F4000
1FA400
1FFC00
1AFC00
058400
ENDCHAR
STARTCHAR edotaccent
ENCODING 279
SWIDTH 632 0
DWIDTH 13 0
BBX 12 24 0 -1
BITMAP
016A40
02FF80
01FF80
01FF80
01FF80
00FF80
005000
000000
05AA94
7FFFFE
2FFFFC
0FFFF8
0FFFF4
0FFFF4
0BFFF4
0BF060
07F400
03FFC0
03FFC0
03FA80
02F000
02FFD0
01FFD0
015980
ENDCHAR
STARTCHAR Eogonek
ENCODING 280
SWIDTH 513 0
DWIDTH 10 0
BBX 10 22 1 -7
BITMAP
6AA940
FFFFD0
7FFFC0
3FFF80
3FFF40
3FFF00
3FAF00
3F4000
2FA400
2FF800
2FF800
1F4000
1FA400
1FFC00
1EFC00
04B800
00F000
00F000
00F800
00BFC0
003FC0
000540
ENDCHAR
STARTCHAR eogonek
ENCODING 281
SWIDTH 632 0
DWIDTH 13 0
BBX 12 22 0 -7
BITMAP
05AA94
7FFFFE
2FFFFC
0FFFF8
0FFFF4
0FFFF4
0BFFF4
0BF060
07F400
03FFC0
03FFC0
03FA80
02F000
02FFD0
01FFC0
015F40
000B40
000F00
000F80
000BFD
0003FC
000064
ENDCHAR
STARTCHAR Ecaron
ENCODING 282
SWIDTH 570 0
DWIDTH 11 0
BBX 10 24 1 -1
BITMAP
2C0280
3E07D0
2F4FC0
1FAF40
0BFF00
07FD00
02A800
000000
6AA940
FFFFD0
7FFFC0
3FFF80
3FFF40
3FFF00
3FAF00
3F4000
2FA400
2FF800
2FF800
1F4000
1FA400
1FFC00
1AFC00
058400
ENDCHAR
STARTCHAR ecaron
ENCODING 283
SWIDTH 632 0
DWIDTH 13 0
BBX 12 24 0 -1
BITMAP
02C028
03E0BD
02F4FC
01FAF4
00BFF0
007FD0
002A80
000000
05AA94
7FFFFE
2FFFFC
0FFFF8
0FFFF4
0FFFF4
0BFFF4
0BF060
07F400
03FFC0
03FFC0
03FA80
02F000
02FFD0
01FFD0
015980
ENDCHAR
STARTCHAR Gcircumflex
ENCODING 284
SWIDTH 499 0
DWIDTH 10 0
BBX 10 25 0 -2
BITMAP
02A800
0BFD00
0FFE00
1FBF40
3E0F80
7807D0
600180
000000
01A400
1FFF40
3FFFC0
7FFFD0
7FFFE0
7FFFD0
3FBFD0
3F1FC0
2F0FC0
2F1140
2F2FC0
1F6FC0
1F4BC0
0FEFC0
0BFF80
02BE00
011400
ENDCHAR
STARTCHAR gcircumflex
ENCODING 285
SWIDTH 546 0
DWIDTH 11 0
BBX 11 25 0 -2
BITMAP
02AC00
03FE00
0BFF00
0FAF80
1F0BD0
3D02E0
240080
000000
06A900
1FFFC0
3FFFF0
7FFFF4
7FFFF8
7FFFF8
3FFFF4
3F8BF0
2F87F0
2F4150
1F9E90
0FCFF0
0FC7E0
0BE7E0
07FFE0
02FFD0
005440
ENDCHAR
STARTCHAR Gbreve
ENCODING 286
SWIDTH 499 0
DWIDTH 10 0
BBX 10 25 0 -2
BITMAP
050000
1F0680
0F4BC0
0FEF80
06FF40
005A00
000100
000000
01A400
1FFF40
3FFFC0
7FFFD0
7FFFE0
7FFFD0
3FBFD0
3F1FC0
2F0FC0
2F1140
2F2FC0
1F6FC0
1F4BC0
0FEFC0
0BFF80
02BE00
011400
ENDCHAR
STARTCHAR gbreve
ENCODING 287
SWIDTH 546 0
DWIDTH 11 0
BBX 11 25 0 -2
BITMAP
050000
0F4290
0B83D0
07FFC0
02FF80
004E40
000000
000000
06A900
1FFFC0
3FFFF0
7FFFF4
7FFFF8
7FFFF8
3FFFF4
3F8BF0
2F87F0
2F4150
1F9E90
0FCFF0
0FC7E0
0BE7E0
07FFE0
02FFD0
005440
ENDCHAR
STARTCHAR Gdotaccent
ENCODING 288
SWIDTH 499 0
DWIDTH 10 0
BBX 10 25 0 -2
BITMAP
05A900
0BFD00
0BFD00
0BFE00
07FD00
07FD00
014400
000000
01A400
1FFF40
3FFFC0
7FFFD0
7FFFE0
7FFFD0
3FBFD0
3F1FC0
2F0FC0
2F1140
2F2FC0
1F6FC0
1F4BC0
0FEFC0
0BFF80
02BE00
011400
ENDCHAR
STARTCHAR gdotaccent
ENCODING 289
SWIDTH 546 0
DWIDTH 11 0
BBX 11 25 0 -2
BITMAP
05A900
07FF00
07FE00
03FF00
03FF00
03FE00
014000
000000
06A900
1FFFC0
3FFFF0
7FFFF4
7FFFF8
7FFFF8
3FFFF4
3F8BF0
2F87F0
2F4150
1F9E90
0FCFF0
0FC7E0
0BE7E0
07FFE0
02FFD0
005440
ENDCHAR
STARTCHAR Gcommaaccent
ENCODING 290
SWIDTH 499 0
DWIDTH 10 0
BBX 10 27 0 -12
BITMAP
01A400
1FFF40
3FFFC0
7FFFD0
7FFFE0
7FFFD0
3FBFD0
3F1FC0
2F0FC0
2F1140
2F2FC0
1F6FC0
1F4BC0
0FEFC0
0BFF80
02BE00
011400
000000
01EA00
02FF00
02FF00
02FF00
02FF00
001F00
001E00
001E00
001900
ENDCHAR
STARTCHAR Hcircumflex
ENCODING 292
SWIDTH 726 0
DWIDTH 15 0
BBX 14 27 0 -4
BITMAP
002A8000
007FD000
00FFF000
01FAF400
02E0FC00
07807D00
02001800
00000000
0164A940
7FF0BFE0
1FF07FC0
1FF0BF80
0FF0BF40
0BF0BF00
0BF0BF00
07F0BE00
07FAFD00
03FFFC00
03FAFC00
03F1FC00
02F1F800
02F1F800
02F1F400
0251E400
00000000
00010000
00010000
ENDCHAR
STARTCHAR hcircumflex
ENCODING 293
SWIDTH 730 0
DWIDTH 15 0
BBX 13 24 1 -1
BITMAP
00AA0000
01FF4000
02FFC000
07EBD000
0B83F000
0F00F400
08006000
00000000
16A2AA40
BFC2FF80
7FC1FF00
3FC2FE00
3FC2FD00
2FC2FD00
2FC2FC00
1FC2F800
1FFFF400
0FFFF400
0FEBF400
0FC7F000
0FD7F000
0BD7E000
0BC7E000
04029000
ENDCHAR
STARTCHAR hbar
ENCODING 295
SWIDTH 704 0
DWIDTH 14 0
BBX 13 16 1 -1
BITMAP
1693AA40
BFC3FF00
7FC3FE00
3FFFFD00
3FFFFC00
2FFFF800
2FEBF400
1F83F000
1FFFF000
0FFFE000
0FEBF000
0FC7F000
0FD7F000
0BD7E000
0BC7E000
04029000
ENDCHAR
STARTCHAR Itilde
ENCODING 296
SWIDTH 401 0
DWIDTH 8 0
BBX 9 22 -1 -1
BITMAP
141900
BDBF40
BFFFC0
2FEB40
050100
000000
1AAA40
1FFF00
07FE00
02FD00
02FD00
02FD00
02FD00
02FC00
02FC00
02FC00
01F800
01F800
00F800
00F800
00A800
005400
ENDCHAR
STARTCHAR itilde
ENCODING 297
SWIDTH 411 0
DWIDTH 8 0
BBX 10 22 -1 -1
BITMAP
141900
BDBF80
BFFFD0
2FEB80
050100
000000
1AAA40
0FFF40
03FE00
02FE00
02FD00
02FD00
02FC00
02FC00
01FC00
01FC00
00F800
00F800
00F800
00F800
00B400
001400
ENDCHAR
STARTCHAR Imacron
ENCODING 298
SWIDTH 401 0
DWIDTH 8 0
BBX 8 20 0 -1
BITMAP
1404
BFFD
BFFC
0404
6AA9
7FFC
1FF8
0BF4
0BF4
0BF4
0BF4
0BF0
0BF0
0BF0
07E0
07E0
03E0
03E0
02A0
0150
ENDCHAR
STARTCHAR imacron
ENCODING 299
SWIDTH 411 0
DWIDTH 8 0
BBX 8 20 0 -1
BITMAP
1404
7FFD
7FFD
0404
6AA9
3FFD
0FF8
0BF8
0BF4
0BF4
0BF0
0BF0
07F0
07F0
03E0
03E0
03E0
03E0
02D0
0050
ENDCHAR
STARTCHAR Ibreve
ENCODING 300
SWIDTH 401 0
DWIDTH 8 0
BBX 8 24 0 -1
BITMAP
1400
7C1A
3D2F
3FBE
1BFD
0178
0004
0000
6AA9
7FFC
1FF8
0BF4
0BF4
0BF4
0BF4
0BF0
0BF0
0BF0
07E0
07E0
03E0
03E0
02A0
0150
ENDCHAR
STARTCHAR ibreve
ENCODING 301
SWIDTH 411 0
DWIDTH 8 0
BBX 8 24 0 -1
BITMAP
1400
7C1A
3D2F
3FBE
1BFD
0178
0004
0000
6AA9
3FFD
0FF8
0BF8
0BF4
0BF4
0BF0
0BF0
07F0
07F0
03E0
03E0
03E0
03E0
02D0
0050
ENDCHAR
STARTCHAR Iogonek
ENCODING 302
SWIDTH 401 0
DWIDTH 8 0
BBX 8 23 0 -8
BITMAP
6AA9
7FFC
1FF8
0BF4
0BF4
0BF4
0BF4
0BF0
0BF0
0BF0
07E0
07E0
03E0
03E0
03E0
03D0
0780
0B40
0B40
0B80
0BF9
03FD
00A9
ENDCHAR
STARTCHAR iogonek
ENCODING 303
SWIDTH 412 0
DWIDTH 8 0
BBX 8 23 0 -8
BITMAP
6AA9
3FFC
1FF8
0BF8
0BF4
0BF4
0BF0
0BF0
07F0
07F0
03E0
03E0
03E0
03E0
03D0
03D0
0780
0B40
0B40
0BD0
07FE
02FD
0014
ENDCHAR
STARTCHAR Idotaccent
ENCODING 304
SWIDTH 401 0
DWIDTH 8 0
BBX 8 24 0 -1
BITMAP
16A4
2FF4
2FF4
2FF4
2FF4
1FF4
1510
0000
6AA9
7FFC
1FF8
0BF4
0BF4
0BF4
0BF4
0BF0
0BF0
0BF0
07E0
07E0
03E0
03E0
02A0
0150
ENDCHAR
STARTCHAR dotlessi
ENCODING 305
SWIDTH 411 0
DWIDTH 8 0
BBX 8 16 0 -1
BITMAP
6AA9
3FFD
0FF8
0BF8
0BF4
0BF4
0BF0
0BF0
07F0
07F0
03E0
03E0
03E0
03E0
02D0
0050
ENDCHAR
STARTCHAR IJ
ENCODING 306
SWIDTH 908 0
DWIDTH 18 0
BBX 17 16 0 -1
BITMAP
6AA900AA40
7FFD00BFC0
1FF8007F80
0BF8003F40
0BF8003F00
0BF8007F00
0BF4007F00
0BF4007E00
0BF4007E00
0BF4007D00
07F0297D00
07F07D7D00
03F03DBC00
03F03FF800
02B01EF400
0150014000
ENDCHAR
STARTCHAR ij
ENCODING 307
SWIDTH 901 0
DWIDTH 18 0
BBX 17 16 0 -1
BITMAP
6AA901A900
3FFD01FFC0
1FFC00FF80
0BF800BF80
0BF800BF40
0BF400BF40
0BF400BF00
0BF400BF00
07F4007F00
07F4007F00
03F0697E00
03F07D7E00
03F03E7E00
03F02FFD00
02A01FFC00
0010005400
ENDCHAR
STARTCHAR Jcircumflex
ENCODING 308
SWIDTH 455 0
DWIDTH 9 0
BBX 11 24 -1 -1
BITMAP
006B40
00FFC0
01FFD0
02F7F0
07D1F4
0B40BC
060024
000000
00AA40
00BFC0
007F80
003F80
003F00
007F00
007F00
007E00
007E00
007D00
297D00
7D7D00
3DBC00
3FF800
1EF400
014000
ENDCHAR
STARTCHAR jcircumflex
ENCODING 309
SWIDTH 458 0
DWIDTH 9 0
BBX 11 24 -1 -1
BITMAP
006A40
00FFC0
01FFD0
02F7F0
07D1F4
0B40BC
060024
000000
01A940
00FFD0
00BFC0
00BF80
007F40
007F40
007F40
007F40
003F40
003F00
693F00
7E3F00
3F7E00
2FFE00
0BFD00
006400
ENDCHAR
STARTCHAR Kcommaaccent
ENCODING 310
SWIDTH 580 0
DWIDTH 12 0
BBX 11 26 0 -11
BITMAP
6A5290
2FD3F8
1FE7E0
0FEB80
0BEF40
07FF00
07FF00
07FF00
03FF00
03FF40
02FF40
02FF40
02EB80
01D7C0
01E3C0
005140
000000
00AA40
00FF80
00FF80
00FF80
00FF80
000780
000780
000B40
000A40
ENDCHAR
STARTCHAR kcommaaccent
ENCODING 311
SWIDTH 636 0
DWIDTH 13 0
BBX 12 26 0 -11
BITMAP
16A5A9
7FF2FD
1FF3F4
0FF3D0
07F7C0
03FBC0
03FB80
03FF40
03FF00
02FF00
01FF40
01FFC0
00F7D0
00F2E0
00F1F0
005050
000000
006A90
007FD0
007FD0
007FD0
007FD0
0002D0
0003D0
0003C0
000280
ENDCHAR
STARTCHAR kgreenlandic
ENCODING 312
SWIDTH 636 0
DWIDTH 13 0
BBX 12 16 0 -1
BITMAP
16A5A9
7FF2FD
1FF3F4
0FF3D0
07F7C0
03FBC0
03FB80
03FF40
03FF00
02FF00
01FF40
01FFC0
00F7D0
00F2E0
00F1F0
005050
ENDCHAR
STARTCHAR Lacute
ENCODING 313
SWIDTH 416 0
DWIDTH 8 0
BBX 11 23 0 -2
BITMAP
0000D0
0007E0
001FF8
00BF90
006400
000000
6AA800
2FF000
2FD000
1FD000
1FD000
1FD000
1FD000
0FD000
0FD000
0FD000
0BD000
0BD000
0BFA80
07FF80
03FF80
015B40
000100
ENDCHAR
STARTCHAR lacute
ENCODING 314
SWIDTH 438 0
DWIDTH 9 0
BBX 10 22 1 -1
BITMAP
000280
000BC0
007FE0
01FE40
009000
000000
6AB800
BFE000
7FD000
3FC000
3FC000
3FC000
2FC000
1FC000
1FC000
1FC000
0F8000
0FC000
0FFA40
0BFF00
0BEE00
091D00
ENDCHAR
STARTCHAR Lcommaaccent
ENCODING 315
SWIDTH 416 0
DWIDTH 8 0
BBX 9 27 0 -12
BITMAP
6AA800
2FF000
2FD000
1FD000
1FD000
1FD000
1FD000
0FD000
0FD000
0FD000
0BD000
0BD000
0BFA80
07FF80
03FF80
015B40
000100
000000
06A800
0BFC00
0BFC00
0BFC00
0BFC00
003C00
003C00
007800
006400
ENDCHAR
STARTCHAR lcommaaccent
ENCODING 316
SWIDTH 438 0
DWIDTH 9 0
BBX 9 27 1 -12
BITMAP
6AB800
BFE000
7FD000
3FC000
3FC000
3FC000
2FC000
1FC000
1FC000
1FC000
0F8000
0FC000
0FFA40
0BFF00
0BEE00
091D00
000000
000000
1AA400
1FF400
1FF400
1FF400
1FF400
00B400
00F000
00F000
00A000
ENDCHAR
STARTCHAR Lcaron
ENCODING 317
SWIDTH 714 0
DWIDTH 14 0
BBX 14 17 0 -2
BITMAP
6AA87A90
2FF0BFD0
2FE0BFE0
1FD0BFE0
1FD0BFE0
1FD0BFD0
1FD002D0
0FD002D0
0FD003C0
0FD00380
0BD00000
0BD00000
0BFA8000
07FF8000
03FF8000
015B4000
00010000
ENDCHAR
STARTCHAR lcaron
ENCODING 318
SWIDTH 782 0
DWIDTH 16 0
BBX 14 16 1 -1
BITMAP
6AB82AA0
BFE07FE0
7FD07FF0
3FC07FF0
3FC07FF0
3FC07FF0
2FC001E0
1FC001E0
1FC002D0
1FC002D0
0F800000
0FC00000
0FFA4000
0BFF0000
0BEE0000
091D0000
ENDCHAR
STARTCHAR Ldotaccent
ENCODING 319
SWIDTH 567 0
DWIDTH 11 0
BBX 13 17 0 -2
BITMAP
6AA80000
2FF00000
2FD00000
1FD2AA00
1FD3FF40
1FD3FF00
1FD2FF40
0FD2FF40
0FD2FF40
0FD14000
0BD00000
0BD00000
0BFA8000
07FF8000
03FF8000
015B4000
00010000
ENDCHAR
STARTCHAR ldot
ENCODING 320
SWIDTH 660 0
DWIDTH 13 0
BBX 13 16 1 -1
BITMAP
6AB80000
BFE00000
7FD00000
3FC00000
3FC16A40
3FC2FF80
2FC1FF80
1FC1FF80
1FC1FF80
1FC0FF80
0F805000
0FC00000
0FFA4000
0BFF0000
0BEE0000
091D0000
ENDCHAR
STARTCHAR Lslash
ENCODING 321
SWIDTH 428 0
DWIDTH 9 0
BBX 10 17 0 -2
BITMAP
6AA800
2FF000
1FD000
0FD000
0FD280
0FFF80
1FFFC0
BFFFD0
7FF900
3FD000
1BD000
07D000
07FA80
03FF80
03FF40
015B40
000100
ENDCHAR
STARTCHAR lslash
ENCODING 322
SWIDTH 457 0
DWIDTH 9 0
BBX 10 16 0 -1
BITMAP
1AAA40
2FFC00
0FF400
0FF400
0BF6D0
0BFFE0
0BFFF0
7FFFE0
7FFD00
3FF000
17F000
02F000
02FE90
02FFC0
01FBC0
014280
ENDCHAR
STARTCHAR Nacute
ENCODING 323
SWIDTH 610 0
DWIDTH 12 0
BBX 13 24 0 -3
BITMAP
00000900
00007E00
0001FF80
0007F900
00064000
00000000
16969400
7FE3FD00
1FF2F400
1FF6F400
0FFAF000
0FFFF000
0FFFF000
0FFFE000
0BFFE000
0BFFE000
07EFD000
07DFD000
03DFD000
03DBD000
03D7C000
03938000
01124000
01110000
ENDCHAR
STARTCHAR nacute
ENCODING 324
SWIDTH 664 0
DWIDTH 13 0
BBX 14 23 0 -2
BITMAP
00000700
00001F40
0000BFD0
0002FE40
00014000
00000000
6AA1AA80
3FF4FF40
2FF8FF00
1FFCFE00
1FFDFD00
1FFEFC00
0FFFFC00
0FFFFC00
0FFFF800
0BFFF800
07EFF400
07DFF400
07DBF000
07DBE000
03C7D000
03879000
00014000
ENDCHAR
STARTCHAR Ncommaaccent
ENCODING 325
SWIDTH 610 0
DWIDTH 12 0
BBX 12 28 0 -13
BITMAP
169694
7FE3FD
1FF2F4
1FF6F4
0FFAF0
0FFFF0
0FFFF0
0FFFE0
0BFFE0
0BFFE0
07EFD0
07DFD0
03DFD0
03DBD0
03D7C0
039380
011240
011100
000000
006A90
007FD0
007FD0
007FD0
007FD0
0002D0
0003C0
0003C0
000280
ENDCHAR
STARTCHAR ncommaaccent
ENCODING 326
SWIDTH 664 0
DWIDTH 13 0
BBX 13 27 0 -12
BITMAP
6AA1AA80
3FF4FF40
2FF8FF00
1FFCFE00
1FFDFD00
1FFEFC00
0FFFFC00
0FFFFC00
0FFFF800
0BFFF800
07EFF400
07DFF400
07DBF000
07DBE000
03C7D000
03879000
00014000
00000000
002AA000
002FF000
003FF000
003FF000
003FF000
0001E000
0001E000
0002E000
00019000
ENDCHAR
STARTCHAR Ncaron
ENCODING 327
SWIDTH 610 0
DWIDTH 12 0
BBX 12 26 0 -3
BITMAP
0B40B4
0FC1F8
07D3F4
03FBE0
02FFD0
00FF80
00AB40
000000
169694
7FE3FD
1FF2F4
1FF6F4
0FFAF0
0FFFF0
0FFFF0
0FFFE0
0BFFE0
0BFFE0
07EFD0
07DFD0
03DFD0
03DBD0
03D7C0
039380
011240
011100
ENDCHAR
STARTCHAR ncaron
ENCODING 328
SWIDTH 664 0
DWIDTH 13 0
BBX 13 25 0 -2
BITMAP
02C02800
03E07D00
02F4FC00
01FAF800
00BFF000
007FD000
002A8000
00000000
6AA1AA80
3FF4FF40
2FF8FF00
1FFCFE00
1FFDFD00
1FFEFC00
0FFFFC00
0FFFFC00
0FFFF800
0BFFF800
07EFF400
07DFF400
07DBF000
07DBE000
03C7D000
03879000
00014000
ENDCHAR
STARTCHAR Omacron
ENCODING 332
SWIDTH 504 0
DWIDTH 10 0
BBX 10 21 0 -2
BITMAP
050100
2FFF00
2FFF00
010100
01A400
0FFF40
3FFFD0
7FFFD0
7FFFE0
7FFFD0
7FEFD0
3F5FE0
3F0FD0
2F0FD0
2F4FC0
1F5FC0
1F9F80
0FFF40
0BFF00
019900
001400
ENDCHAR
STARTCHAR omacron
ENCODING 333
SWIDTH 545 0
DWIDTH 11 0
BBX 11 21 0 -2
BITMAP
050000
0FFF80
0FFF80
004000
01AA00
0FFFD0
2FFFE0
7FFFF4
7FFFF4
7FFFF4
3FEFF4
3F8FF4
3F4BF4
2F4BF0
2F4BE0
1F8FD0
0FCFC0
0FFFC0
06FF40
005E00
000100
ENDCHAR
STARTCHAR Obreve
ENCODING 334
SWIDTH 504 0
DWIDTH 10 0
BBX 10 25 0 -2
BITMAP
050000
1F0290
0F47C0
0BFF80
06FF40
005E00
000100
000000
01A400
0FFF40
3FFFD0
7FFFD0
7FFFE0
7FFFD0
7FEFD0
3F5FE0
3F0FD0
2F0FD0
2F4FC0
1F5FC0
1F9F80
0FFF40
0BFF00
019900
001400
ENDCHAR
STARTCHAR obreve
ENCODING 335
SWIDTH 545 0
DWIDTH 11 0
BBX 11 25 0 -2
BITMAP
050000
0F4290
0B87D0
0BFFC0
06FF80
004E00
000000
000000
01AA00
0FFFD0
2FFFE0
7FFFF4
7FFFF4
7FFFF4
3FEFF4
3F8FF4
3F4BF4
2F4BF0
2F4BE0
1F8FD0
0FCFC0
0FFFC0
06FF40
005E00
000100
ENDCHAR
STARTCHAR Ohungarumlaut
ENCODING 336
SWIDTH 504 0
DWIDTH 10 0
BBX 10 25 0 -2
BITMAP
050200
0B83A0
0FDBE0
1F4FC0
3D1F00
782C00
601400
000000
01A400
0FFF40
3FFFD0
7FFFD0
7FFFE0
7FFFD0
7FEFD0
3F5FE0
3F0FD0
2F0FD0
2F4FC0
1F5FC0
1F9F80
0FFF40
0BFF00
019900
001400
ENDCHAR
STARTCHAR ohungarumlaut
ENCODING 337
SWIDTH 545 0
DWIDTH 11 0
BBX 11 25 0 -2
BITMAP
020140
03D2E4
0BE3F4
0F87D0
1F0F40
3C1D00
240800
000000
01AA00
0FFFD0
2FFFE0
7FFFF4
7FFFF4
7FFFF4
3FEFF4
3F8FF4
3F4BF4
2F4BF0
2F4BE0
1F8FD0
0FCFC0
0FFFC0
06FF40
005E00
000100
ENDCHAR
STARTCHAR OE
ENCODING 338
SWIDTH 789 0
DWIDTH 16 0
BBX 15 18 0 -3
BITMAP
01AAAA94
0FFFFFF8
3FFFFFF4
7FFFFFF0
7FFFFFE0
7FFFFFD0
7FEFFBD0
3F5FE000
3F0FFA00
2F0FFF40
2F4FFF00
1F5FE000
1F9FE940
1FFFFF40
0BFF7F40
019A2540
00552100
00101100
ENDCHAR
STARTCHAR oe
ENCODING 339
SWIDTH 778 0
DWIDTH 16 0
BBX 15 16 0 -1
BITMAP
01A9AA50
0FFFFFF8
2FFFFFF0
7FFFFFE0
7FFFFFD0
7FFFFFD0
3FEFFFC0
3F4FE180
2F4FE000
1F4BFF00
1F4FFF00
0F4FEA00
0F9FD000
0FFFFE40
06FFFF00
005A2A00
ENDCHAR
STARTCHAR Racute
ENCODING 340
SWIDTH 599 0
DWIDTH 12 0
BBX 13 22 0 -1
BITMAP
00001D00
00007D00
0001FF40
000BF900
00050000
00000000
05AA8000
7FFFF400
1FFFFD00
0BFFFE00
07FFFE00
07FFFD00
07F6FD00
07F0FD00
03F5FC00
02FFF800
02FFF400
01FBF000
01F6F400
01F6F400
01F5F400
0094B400
ENDCHAR
STARTCHAR racute
ENCODING 341
SWIDTH 616 0
DWIDTH 12 0
BBX 13 23 0 -2
BITMAP
00000900
00007E00
0001FF80
0007F900
00064000
00000000
05AA4000
7FFFF800
1FFFFF00
0BFFFF00
07FFFE00
07FFFE00
07FAFD00
03F4FD00
03F4FC00
03FFFC00
02FFF400
02FBE000
02F3E000
02F6E000
02F6E000
0292E000
00001000
ENDCHAR
STARTCHAR Rcommaaccent
ENCODING 342
SWIDTH 599 0
DWIDTH 12 0
BBX 12 27 0 -12
BITMAP
05AA80
7FFFF4
1FFFFD
0BFFFE
07FFFE
07FFFD
07F6FD
07F0FD
03F5FC
02FFF8
02FFF4
01FBF0
01F6F4
01F6F4
01F5F4
0094B4
000000
000000
00BA80
00BFC0
00BFC0
00FFC0
00FFC0
0007C0
000780
000780
000640
ENDCHAR
STARTCHAR rcommaaccent
ENCODING 343
SWIDTH 616 0
DWIDTH 12 0
BBX 12 27 0 -12
BITMAP
05AA40
7FFFF8
1FFFFF
0BFFFF
07FFFE
07FFFE
07FAFD
03F4FD
03F4FC
03FFFC
02FFF4
02FBE0
02F3E0
02F6E0
02F6E0
0292E0
000010
000000
006A80
007FD0
00BFD0
00BFD0
00BFD0
0003C0
0003C0
0007C0
000680
ENDCHAR
STARTCHAR Rcaron
ENCODING 344
SWIDTH 599 0
DWIDTH 12 0
BBX 12 24 0 -1
BITMAP
078074
07D0BC
03F1F8
02FBF0
00FFE0
00BFC0
006A80
000000
05AA80
7FFFF4
1FFFFD
0BFFFE
07FFFE
07FFFD
07F6FD
07F0FD
03F5FC
02FFF8
02FFF4
01FBF0
01F6F4
01F6F4
01F5F4
0094B4
ENDCHAR
STARTCHAR rcaron
ENCODING 345
SWIDTH 616 0
DWIDTH 12 0
BBX 12 25 0 -2
BITMAP
078074
0BD0FC
03E2F8
02FBF0
01FFE0
00BFC0
006A40
000000
05AA40
7FFFF8
1FFFFF
0BFFFF
07FFFE
07FFFE
07FAFD
03F4FD
03F4FC
03FFFC
02FFF4
02FBE0
02F3E0
02F6E0
02F6E0
0292E0
000010
ENDCHAR
STARTCHAR Sacute
ENCODING 346
SWIDTH 504 0
DWIDTH 10 0
BBX 12 22 0 -1
BITMAP
000070
0001F4
000BFD
002FE4
001400
000000
006900
0BFF80
2FFFE0
3FFFE0
7FFFE0
7FFFD0
7FEFD0
7F8FD0
3FE400
2FFE00
07FF80
006FC0
2F8F80
2FFF40
0FFF00
066500
ENDCHAR
STARTCHAR sacute
ENCODING 347
SWIDTH 481 0
DWIDTH 10 0
BBX 12 22 0 -1
BITMAP
000070
0002F4
000BFD
003FA4
002400
000000
01A800
0BFF40
2FFFC0
3FFFC0
7FFFC0
7FFFC0
7FBFC0
7F5F80
3F9540
2FFD00
0BFE00
007F00
1A6F00
1FAE00
0FFD00
07A800
ENDCHAR
STARTCHAR Scircumflex
ENCODING 348
SWIDTH 504 0
DWIDTH 10 0
BBX 10 24 0 -1
BITMAP
01A900
02FF00
07FF80
0BDFC0
0F47E0
2D02F0
180090
000000
006900
0BFF80
2FFFE0
3FFFE0
7FFFE0
7FFFD0
7FEFD0
7F8FD0
3FE400
2FFE00
07FF80
006FC0
2F8F80
2FFF40
0FFF00
066500
ENDCHAR
STARTCHAR scircumflex
ENCODING 349
SWIDTH 481 0
DWIDTH 10 0
BBX 10 24 0 -1
BITMAP
02AD00
03FE00
0BFF40
0FEF80
1F0BD0
3D02E0
240080
000000
01A800
0BFF40
2FFFC0
3FFFC0
7FFFC0
7FFFC0
7FBFC0
7F5F80
3F9540
2FFD00
0BFE00
007F00
1A6F00
1FAE00
0FFD00
07A800
ENDCHAR
STARTCHAR Scedilla
ENCODING 350
SWIDTH 504 0
DWIDTH 10 0
BBX 10 22 0 -7
BITMAP
006900
0BFF80
2FFFE0
3FFFE0
7FFFE0
7FFFD0
7FEFD0
7F8FD0
3FE400
2FFE00
07FF80
006FC0
2F8F80
2FFF40
0FFF00
06BD00
007000
00B500
006E00
000A00
006E00
006900
ENDCHAR
STARTCHAR scedilla
ENCODING 351
SWIDTH 481 0
DWIDTH 10 0
BBX 9 22 0 -7
BITMAP
01A800
0BFF40
2FFFC0
3FFFC0
7FFFC0
7FFFC0
7FBFC0
7F5F80
3F9540
2FFD00
0BFE00
007F00
1A6F00
1FAE00
0FFD00
07F800
01D000
01D400
01BC00
002C00
01BC00
01A800
ENDCHAR
STARTCHAR Scaron
ENCODING 352
SWIDTH 503 0
DWIDTH 10 0
BBX 10 26 0 -1
BITMAP
2C0280
3E07E0
2F4FC0
0FEF80
0BFF00
07FE00
02A800
000000
000000
000000
006900
0BFF80
2FFFE0
3FFFE0
7FFFE0
7FFFD0
7FEFD0
7F8FD0
7FE400
2FFE00
07FF80
006FC0
2F9F80
2FFF40
0FFF00
066500
ENDCHAR
STARTCHAR scaron
ENCODING 353
SWIDTH 479 0
DWIDTH 10 0
BBX 10 26 0 -1
BITMAP
280240
7D0BD0
3F1FC0
1FAF40
0FFF00
0BFD00
03FC00
000000
000000
000000
01A800
0BFF40
2FFFC0
3FFFC0
7FFFC0
7FFFC0
7FBF80
7F5F80
3F9540
2FFC00
0BFE00
007F00
1A6F00
1FAE00
0FFD00
07A800
ENDCHAR
STARTCHAR Tcommaaccent
ENCODING 354
SWIDTH 622 0
DWIDTH 12 0
BBX 11 23 1 -8
BITMAP
5AAA40
FFFFF8
BFFFF0
7FFFF0
3FFFF0
3FFFE0
3FFFE0
15FD50
00FC00
00FD00
00FC00
00FC00
00FC00
00BC00
00BC00
00FC00
00F800
007000
00B500
006E00
000A00
006E00
006900
ENDCHAR
STARTCHAR tcommaaccent
ENCODING 355
SWIDTH 683 0
DWIDTH 14 0
BBX 13 23 0 -8
BITMAP
06AAA940
7FFFFF80
2FFFFF40
1FFFFE00
0FFFFE00
0BFFFE00
0BFFFE00
066FC500
001FC000
001FC000
001FC000
001FC000
000FC000
000FC000
000FC000
000F8000
000FC000
000B4000
000A5000
000AE000
0000E000
000AE000
00069000
ENDCHAR
STARTCHAR Tcaron
ENCODING 356
SWIDTH 622 0
DWIDTH 12 0
BBX 11 25 1 -2
BITMAP
2D02C0
3F07E0
1F4FD0
0FEF80
0BFF00
03FE00
02AC00
000000
5AAA40
FFFFF8
BFFFF0
7FFFF0
3FFFF0
3FFFE0
3FFFE0
15FD50
00FC00
00FD00
00FC00
00FC00
00FC00
00BC00
00BC00
00FC00
00A400
ENDCHAR
STARTCHAR tcaron
ENCODING 357
SWIDTH 622 0
DWIDTH 12 0
BBX 11 25 1 -2
BITMAP
1E01D0
1F43F0
0F87E0
0BEFC0
03FF80
02FF00
01AA00
000000
5AAA40
FFFFF8
BFFFF0
7FFFF0
3FFFF0
3FFFE0
3FFFE0
15FD50
00FC00
00FD00
00FC00
00FC00
00FC00
00BC00
00BC00
00FC00
00A400
ENDCHAR
STARTCHAR Utilde
ENCODING 360
SWIDTH 637 0
DWIDTH 13 0
BBX 12 22 0 -1
BITMAP
010280
1F9FF0
0FFFF8
07FAE0
015000
000000
5A9154
2FE2FE
1FE2FD
1FE2FC
0FE2F8
0FE2F8
0FE2F4
0BE2F0
0BD3F0
0BD3F0
0BE3F0
07E3E0
07FBE0
03FFD0
01EA40
004100
ENDCHAR
STARTCHAR utilde
ENCODING 361
SWIDTH 708 0
DWIDTH 14 0
BBX 13 21 1 0
BITMAP
05028000
1F6FE000
1FFFF400
0BFAE000
01404000
00000000
5A915000
BFD2FF80
7FD2FF40
3FD2FE00
3FE2FD00
2FE2FC00
1FE2FC00
1FD2F800
1FD3F800
0FD3F800
0FE3F400
0BE3F000
07FBF000
03FFE000
01E69000
ENDCHAR
STARTCHAR Umacron
ENCODING 362
SWIDTH 637 0
DWIDTH 13 0
BBX 12 20 0 -1
BITMAP
015010
03FFE0
03FFE0
001000
5A9154
2FE2FE
1FE2FD
1FE2FC
0FE2F8
0FE2F8
0FE2F4
0BE2F0
0BD3F0
0BD3F0
0BE3F0
07E3E0
07FBE0
03FFD0
01EA40
004100
ENDCHAR
STARTCHAR umacron
ENCODING 363
SWIDTH 708 0
DWIDTH 14 0
BBX 13 19 1 0
BITMAP
01404000
07FFD000
07FFD000
00500000
5A915000
BFD2FF80
7FD2FF40
3FD2FE00
3FE2FD00
2FE2FC00
1FE2FC00
1FD2F800
1FD3F800
0FD3F800
0FE3F400
0BE3F000
07FBF000
03FFE000
01E69000
ENDCHAR
STARTCHAR Ubreve
ENCODING 364
SWIDTH 637 0
DWIDTH 13 0
BBX 12 24 0 -1
BITMAP
004000
02E0A8
01F0F8
01FFF4
00BFE0
001690
000010
000000
5A9154
2FE2FE
1FE2FD
1FE2FC
0FE2F8
0FE2F8
0FE2F4
0BE2F0
0BD3F0
0BD3F0
0BE3F0
07E3E0
07FBE0
03FFD0
01EA40
004100
ENDCHAR
STARTCHAR ubreve
ENCODING 365
SWIDTH 708 0
DWIDTH 14 0
BBX 13 23 1 0
BITMAP
01400000
03D0A400
02E0F400
01FFF000
00BFE000
00139000
00000000
00000000
5A915000
BFD2FF80
7FD2FF40
3FD2FE00
3FE2FD00
2FE2FC00
1FE2FC00
1FD2F800
1FD3F800
0FD3F800
0FE3F400
0BE3F000
07FBF000
03FFE000
01E69000
ENDCHAR
STARTCHAR Uring
ENCODING 366
SWIDTH 637 0
DWIDTH 13 0
BBX 12 23 0 -1
BITMAP
001500
00BF80
00E6D0
00E1D0
00B680
006F40
000000
5A9154
2FE2FE
1FE2FD
1FE2FC
0FE2F8
0FE2F8
0FE2F4
0BE2F0
0BD3F0
0BD3F0
0BE3F0
07E3E0
07FBE0
03FFD0
01EA40
004100
ENDCHAR
STARTCHAR uring
ENCODING 367
SWIDTH 708 0
DWIDTH 14 0
BBX 13 22 1 0
BITMAP
00150000
00BF8000
00E6D000
00D1C000
00B68000
006F0000
00000000
5A915000
BFD2FF80
7FD2FF40
3FD2FE00
3FE2FD00
2FE2FC00
1FE2FC00
1FD2F800
1FD3F800
0FD3F800
0FE3F400
0BE3F000
07FBF000
03FFE000
01E69000
ENDCHAR
STARTCHAR Uhungarumlaut
ENCODING 368
SWIDTH 637 0
DWIDTH 13 0
BBX 12 24 0 -1
BITMAP
005050
00F4B9
01F8FD
03F1F4
07C2E0
0B4380
050200
000000
5A9154
2FE2FE
1FE2FD
1FE2FC
0FE2F8
0FE2F8
0FE2F4
0BE2F0
0BD3F0
0BD3F0
0BE3F0
07E3E0
07FBE0
03FFD0
01EA40
004100
ENDCHAR
STARTCHAR uhungarumlaut
ENCODING 369
SWIDTH 708 0
DWIDTH 14 0
BBX 13 23 1 0
BITMAP
00805000
01F0F900
02F5FD00
03E2F400
0B83D000
0E074000
08050000
00000000
5A915000
BFD2FF80
7FD2FF40
3FD2FE00
3FE2FD00
2FE2FC00
1FE2FC00
1FD2F800
1FD3F800
0FD3F800
0FE3F400
0BE3F000
07FBF000
03FFE000
01E69000
ENDCHAR
STARTCHAR Uogonek
ENCODING 370
SWIDTH 637 0
DWIDTH 13 0
BBX 12 21 0 -6
BITMAP
5A9154
2FE2FE
1FE2FD
1FE2FC
0FE2F8
0FE2F8
0FE2F4
0BE2F0
0BD3F0
0BD3F0
0BE3F0
07E3E0
07FBE0
03FFD0
01EF80
004F00
001F00
001F00
000F94
000BFC
0002FC
ENDCHAR
STARTCHAR uogonek
ENCODING 371
SWIDTH 662 0
DWIDTH 13 0
BBX 13 21 1 -6
BITMAP
5A915000
BFD2FF80
7FD2FF40
3FD2FE00
3FD2FD00
2FE2FC00
2FE2F800
1FD2F800
1FD3F800
1FD3F400
0FE3F400
0BE7F000
07FBF000
07FFE000
01FE9000
00780000
00B40000
00B80000
007E5000
003FE000
001BE000
ENDCHAR
STARTCHAR Wcircumflex
ENCODING 372
SWIDTH 777 0
DWIDTH 16 0
BBX 16 23 0 0
BITMAP
001A9000
002FF000
007FF800
00BDFC00
00F47E00
02E01F00
01800900
00000000
0153C690
6FD7C7FD
2FE7DBF0
0BEBDFD0
03FBFF80
03FFFF40
02FFFF00
01FFFE00
00BFFE00
007FFD00
007EFC00
003EFC00
002DF800
002DB400
0019B000
ENDCHAR
STARTCHAR wcircumflex
ENCODING 373
SWIDTH 704 0
DWIDTH 14 0
BBX 14 23 0 0
BITMAP
002AC000
007FD000
00BFF000
01FAF400
02E0BC00
03C03D00
02401800
00000000
05461500
7FCB1FE0
1FCF5F80
0BDFAF40
07EFFF00
03FFFE00
02FFFD00
01FFFC00
00FFFC00
00BFF800
00BEF800
007DF800
003DF400
002CF400
0018B400
ENDCHAR
STARTCHAR Ycircumflex
ENCODING 374
SWIDTH 688 0
DWIDTH 14 0
BBX 13 24 1 -1
BITMAP
00AA0000
01FF4000
03FF8000
07EBD000
0B83F000
1E01F400
18006000
00000000
6A819000
BFD2FF40
1FE3FE00
07FBF400
01FFE000
00FFC000
007FC000
007FC000
002F8000
001F8000
001F8000
000F8000
000F8000
000F4000
000F4000
00090000
ENDCHAR
STARTCHAR ycircumflex
ENCODING 375
SWIDTH 604 0
DWIDTH 12 0
BBX 11 24 1 -1
BITMAP
02A800
07FD00
0FFF00
1FAF40
2E0FC0
7807D0
200180
000000
6A0500
BF4FF4
1F9FD0
0BEF80
03FE00
02FD00
02FD00
01FD00
00FD00
00FC00
00BC00
00BC00
00BC00
00BC00
00B800
00A400
ENDCHAR
STARTCHAR Ydieresis
ENCODING 376
SWIDTH 688 0
DWIDTH 14 0
BBX 13 22 1 -1
BITMAP
1A82B800
2FD3FC00
2FD3FC00
2FC3FC00
2FC3E800
00000000
6A819000
BFD2FF40
1FE3FE00
07FBF400
01FFE000
00FFC000
007FC000
007FC000
002F8000
001F8000
001F8000
000F8000
000F8000
000F4000
000F4000
00090000
ENDCHAR
STARTCHAR Zacute
ENCODING 377
SWIDTH 695 0
DWIDTH 14 0
BBX 13 22 1 -1
BITMAP
00000A00
00002F00
0001FF80
0007F900
00024000
00000000
5AAA9000
FFFFFF40
BFFFFF00
7FFFFD00
3FFFFC00
2FFFF400
1FBFF000
183F8000
00BE0000
00FD0000
00F80000
02F00000
03FA4000
0BFF4000
0BFF0000
00050000
ENDCHAR
STARTCHAR zacute
ENCODING 378
SWIDTH 622 0
DWIDTH 12 0
BBX 12 22 1 -1
BITMAP
000028
0000F8
0007FE
001FE4
001900
000000
6AAA90
FFFFF8
BFFFF4
3FFFE0
2FFFD0
2FFFD0
1FFF80
097F00
00BD00
00F800
01F400
01F000
02E900
03FF00
07FF00
011600
ENDCHAR
STARTCHAR Zdotaccent
ENCODING 379
SWIDTH 695 0
DWIDTH 14 0
BBX 13 24 1 -1
BITMAP
016A4000
01FF8000
01FF8000
00FFC000
00FFC000
00FF8000
00500000
00000000
5AAA9000
FFFFFF40
BFFFFF00
7FFFFD00
3FFFFC00
2FFFF400
1FBFF000
183F8000
00BE0000
00FD0000
00F80000
02F00000
03FA4000
0BFF4000
0BFF0000
00050000
ENDCHAR
STARTCHAR zdotaccent
ENCODING 380
SWIDTH 622 0
DWIDTH 12 0
BBX 11 24 1 -1
BITMAP
05A900
07FE00
07FE00
07FE00
07FE00
03FE00
014000
000000
6AAA90
FFFFF8
BFFFF4
3FFFE0
2FFFD0
2FFFD0
1FFF80
097F00
00BD00
00F800
01F400
01F000
02E900
03FF00
07FF00
011600
ENDCHAR
STARTCHAR Zcaron
ENCODING 381
SWIDTH 693 0
DWIDTH 14 0
BBX 14 26 0 -1
BITMAP
02D02800
02F07D00
01F4FC00
00FEF400
00BFF000
003FE000
002A8000
00000000
00000000
00000000
16AAA400
7FFFFFD0
2FFFFFC0
1FFFFF40
0FFFFF00
0BFFFD00
07EFFC00
060FE000
002F8000
003F4000
007E0000
00BC0000
00FE9000
02FFD000
02FFC000
00014000
ENDCHAR
STARTCHAR zcaron
ENCODING 382
SWIDTH 621 0
DWIDTH 12 0
BBX 11 27 1 -1
BITMAP
040000
2D02C0
2F07E0
1F4FC0
0FEF80
0BFF00
03FE00
02A800
000000
000000
000000
6AAA90
FFFFF8
BFFFF4
7FFFE0
2FFFD0
2FFFD0
1FFF80
097F00
00BD00
00F800
01F400
01F000
02E900
03FF00
07FF00
011600
ENDCHAR
STARTCHAR DZ
ENCODING 497
SWIDTH 194 0
DWIDTH 4 0
BBX 1 1 0 0
BITMAP
00
ENDCHAR
STARTCHAR Dz
ENCODING 498
SWIDTH 194 0
DWIDTH 4 0
BBX 1 1 0 0
BITMAP
00
ENDCHAR
STARTCHAR dotlessj
ENCODING 567
SWIDTH 458 0
DWIDTH 9 0
BBX 10 16 -1 -1
BITMAP
01A940
00FFD0
00BFC0
00BF80
007F40
007F40
007F40
007F40
003F40
003F00
693F00
7E3F00
3F7E00
2FFE00
0BFD00
006400
ENDCHAR
STARTCHAR circumflex
ENCODING 710
SWIDTH 528 0
DWIDTH 11 0
BBX 9 7 1 14
BITMAP
0AB000
0FF800
2FFD00
3FBE00
7C2F40
F40B80
900200
ENDCHAR
STARTCHAR caron
ENCODING 711
SWIDTH 486 0
DWIDTH 10 0
BBX 10 7 0 14
BITMAP
780380
7D0BD0
3F1F80
1FBF40
0FFE00
0BFD00
02A800
ENDCHAR
STARTCHAR breve
ENCODING 728
SWIDTH 464 0
DWIDTH 9 0
BBX 8 7 1 -2
BITMAP
5000
F429
B87D
BFFC
6FF4
04E0
0010
ENDCHAR
STARTCHAR dotaccent
ENCODING 729
SWIDTH 388 0
DWIDTH 8 0
BBX 6 7 1 4
BITMAP
5A90
BFD0
BFD0
7FE0
7FD0
7FD0
1440
ENDCHAR
STARTCHAR ring
ENCODING 730
SWIDTH 370 0
DWIDTH 7 0
BBX 6 6 1 6
BITMAP
1500
BF80
E6D0
A0D0
B680
6F40
ENDCHAR
STARTCHAR ogonek
ENCODING 731
SWIDTH 360 0
DWIDTH 7 0
BBX 6 7 1 0
BITMAP
7400
B400
F000
F400
BD40
7FD0
1FD0
ENDCHAR
STARTCHAR tilde
ENCODING 732
SWIDTH 535 0
DWIDTH 11 0
BBX 9 5 1 -2
BITMAP
101900
F9BF40
BFFF80
3FEF40
050000
ENDCHAR
STARTCHAR hungarumlaut
ENCODING 733
SWIDTH 554 0
DWIDTH 11 0
BBX 10 7 1 14
BITMAP
080500
1F4B90
2F9FD0
3E2F40
B83D00
E07400
805000
ENDCHAR
STARTCHAR dotaccentcmb
ENCODING 775
SWIDTH 396 0
DWIDTH 8 0
BBX 6 7 1 7
BITMAP
5A90
BFE0
BFD0
7FE0
7FE0
7FE0
1400
ENDCHAR
STARTCHAR uni030F
ENCODING 783
SWIDTH 549 0
DWIDTH 11 0
BBX 10 7 0 14
BITMAP
050200
6F1F40
7F5F80
1F8BC0
07C2E0
01D0B0
005020
ENDCHAR
STARTCHAR uni0311
ENCODING 785
SWIDTH 490 0
DWIDTH 10 0
BBX 8 6 1 7
BITMAP
0550
2FF4
7FFC
7D7D
B82E
A405
ENDCHAR
STARTCHAR uni0326
ENCODING 806
SWIDTH 360 0
DWIDTH 7 0
BBX 5 9 1 -2
BITMAP
6A80
BFC0
BFC0
BFC0
BFC0
03C0
03C0
0780
0640
ENDCHAR
STARTCHAR endash
ENCODING 8211
SWIDTH 478 0
DWIDTH 10 0
BBX 8 5 1 5
BITMAP
6A99
BFFD
FFFC
BFFC
0404
ENDCHAR
STARTCHAR emdash
ENCODING 8212
SWIDTH 567 0
DWIDTH 11 0
BBX 9 5 1 5
BITMAP
69AA80
BFFFC0
FFFF80
BFFF80
041000
ENDCHAR
STARTCHAR quoteleft
ENCODING 8216
SWIDTH 373 0
DWIDTH 7 0
BBX 6 10 1 5
BITMAP
6400
7800
B400
B400
BED0
BFD0
BFD0
FFD0
BFD0
BFD0
ENDCHAR
STARTCHAR quoteright
ENCODING 8217
SWIDTH 369 0
DWIDTH 7 0
BBX 5 10 1 5
BITMAP
A980
FFC0
FFC0
FFC0
FFC0
FFC0
47C0
03C0
0780
0780
ENDCHAR
STARTCHAR quotesinglbase
ENCODING 8218
SWIDTH 369 0
DWIDTH 7 0
BBX 5 10 1 5
BITMAP
A980
FFC0
FFC0
FFC0
FFC0
FFC0
47C0
03C0
0780
0780
ENDCHAR
STARTCHAR quotedblleft
ENCODING 8220
SWIDTH 687 0
DWIDTH 14 0
BBX 12 10 1 5
BITMAP
240280
7803C0
B40780
B40780
BEDBFA
BFDBFE
BFDBFE
FFDBFE
BFDBFE
BFD7BD
ENDCHAR
STARTCHAR quotedblright
ENCODING 8221
SWIDTH 677 0
DWIDTH 14 0
BBX 12 10 1 5
BITMAP
AA4698
FF8BFD
FF8BFD
FFCBFD
FF8BFD
FF8BFD
57817D
07803C
07803C
074078
ENDCHAR
STARTCHAR quotedblbase
ENCODING 8222
SWIDTH 697 0
DWIDTH 14 0
BBX 12 10 1 -6
BITMAP
A98295
FFC7FF
FFC7FF
FFD7FF
FFC7FF
FFC7FF
47C15F
03C01E
07802E
07802D
ENDCHAR
STARTCHAR ellipsis
ENCODING 8230
SWIDTH 1462 0
DWIDTH 29 0
BBX 28 6 1 1
BITMAP
AFC002BF000AFC
BFC002FF000BFC
BFC002FF000BFC
BFC001FF000BFD
7FC001FF0007FD
7EC001FA0007EC
ENDCHAR
STARTCHAR guilsinglleft
ENCODING 8249
SWIDTH 459 0
DWIDTH 9 0
BBX 9 12 0 1
BITMAP
015500
03FF40
03FD00
0BF800
2FF000
7FD000
3FD000
2FE000
0BF400
03FD00
01FF40
001640
ENDCHAR
STARTCHAR guilsinglright
ENCODING 8250
SWIDTH 432 0
DWIDTH 9 0
BBX 8 12 0 1
BITMAP
1540
3FE0
1FE0
0BF4
03FD
01FF
01FE
02FD
07F4
2FF0
7FD0
1540
ENDCHAR
STARTCHAR fraction
ENCODING 8260
SWIDTH 371 0
DWIDTH 7 0
BBX 7 16 0 -1
BITMAP
6AA4
7FF8
1FF4
0FF4
0FF0
0FE0
0FE0
0FE0
0FE0
0BE0
0BD0
07D0
07D0
07D0
03C0
0040
ENDCHAR
STARTCHAR Euro
ENCODING 8364
SWIDTH 587 0
DWIDTH 12 0
BBX 11 19 0 -4
BITMAP
006A80
02FFE0
07FFF8
0BFFF8
0FFFFC
0FFFF8
0BFBF8
0BF2F8
AFF9F8
5BE000
6BF400
5BF6E0
03F3F0
02FFE0
01FFC0
002740
001500
001400
000400
ENDCHAR
STARTCHAR trademark
ENCODING 8482
SWIDTH 785 0
DWIDTH 16 0
BBX 15 10 0 5
BITMAP
6BA5B9F8
7FF4FEF4
3FF4BFF4
3FF4BFF4
1790BFF4
03807FF4
03807BB0
03803AB0
038026A0
03800000
ENDCHAR
STARTCHAR minus
ENCODING 8722
SWIDTH 478 0
DWIDTH 10 0
BBX 8 5 1 5
BITMAP
6A99
BFFD
FFFC
BFFC
0404
ENDCHAR
STARTCHAR commaaccent
ENCODING 63171
SWIDTH 360 0
DWIDTH 7 0
BBX 6 10 1 -3
BITMAP
BA80
FFC0
FFC0
FFD0
FFC0
FFC0
03C0
03C0
0780
0780
ENDCHAR
STARTCHAR .notdef
ENCODING -1
SWIDTH 365 0
DWIDTH 7 0
BBX 6 14 0 0
BITMAP
1550
6560
5020
5020
5020
5020
5020
5020
5020
5020
5020
5020
5020
6AB0
ENDCHAR
STARTCHAR .null
ENCODING -1
SWIDTH 0 0
DWIDTH 0 0
BBX 1 1 0 0
BITMAP
00
ENDCHAR
STARTCHAR nonmarkingreturn
ENCODING -1
SWIDTH 333 0
DWIDTH 7 0
BBX 1 1 0 0
BITMAP
00
ENDCHAR
ENDFONT
